<svg width="24" height="24" viewBox="0 0 24 24" fill="none" xmlns="http://www.w3.org/2000/svg">
<path fill-rule="evenodd" clip-rule="evenodd" d="M15 17H9V18C9 19.6569 10.3431 21 12 21C13.6569 21 15 19.6569 15 18V17Z" stroke="white" stroke-width="2" stroke-linecap="round" stroke-linejoin="round"/>
<path d="M19 16.9999H5C4.48717 16.9999 4.06449 16.6138 4.00673 16.1165L4 15.9999V15.4141C4 15.1489 4.10536 14.8946 4.29289 14.707L4.80372 14.1962C4.9294 14.0705 5 13.9001 5 13.7223V9.99986C5 8.15821 5.7112 6.48267 6.87393 5.23291" stroke="white" stroke-width="2" stroke-linecap="round" stroke-linejoin="round"/>
<path d="M5 3L21 19" stroke="white" stroke-width="2" stroke-linecap="round" stroke-linejoin="round"/>
<path d="M18.9997 12.999L19.0005 9.99998C19.0005 6.134 15.8665 3 12.0005 3L11.7599 3.00406C10.955 3.03125 10.1845 3.19435 9.4707 3.47112" stroke="white" stroke-width="2" stroke-linecap="round" stroke-linejoin="round"/>
</svg>
