<svg width="111" height="26" viewBox="0 0 111 26" fill="none" xmlns="http://www.w3.org/2000/svg">
<rect x="0.5" y="0.5" width="110" height="25" rx="5.5" stroke="white"/>
<g clip-path="url(#clip0_4044_10835)">
<mask id="mask0_4044_10835" style="mask-type:luminance" maskUnits="userSpaceOnUse" x="6" y="4" width="77" height="18">
<path d="M83 4H6V22H83V4Z" fill="white"/>
</mask>
<g mask="url(#mask0_4044_10835)">
<mask id="mask1_4044_10835" style="mask-type:luminance" maskUnits="userSpaceOnUse" x="6" y="4" width="77" height="18">
<path d="M82.9302 4H6V21.8741H82.9302V4Z" fill="white"/>
</mask>
<g mask="url(#mask1_4044_10835)">
<path d="M28.7016 9.84607V12.3037H31.6377V13.3144H28.7016V15.8295H31.9772V16.8978H27.4141V8.79051H31.9765V9.8471L28.7016 9.84607ZM36.3596 15.76V16.8969H35.5689C34.9062 16.8969 34.4036 16.7343 34.061 16.4089C33.7183 16.0835 33.547 15.542 33.5471 14.7844V11.6835H32.6548V10.5696H33.5471V8.99627H34.8461V10.5696H36.3482V11.6835H34.8461V14.8073C34.8461 15.1671 34.912 15.4159 35.0437 15.5537C35.1754 15.6914 35.407 15.7602 35.7383 15.76H36.3596ZM41.0469 10.4663C41.7699 10.4663 42.3496 10.7036 42.7863 11.1784C43.223 11.6531 43.4413 12.3307 43.4414 13.211V16.8975H42.1539V13.3489C42.1539 12.7824 42.0108 12.344 41.7247 12.0339C41.5726 11.8761 41.3891 11.753 41.1866 11.6729C40.9841 11.5927 40.767 11.5572 40.55 11.5688C40.3217 11.5586 40.0939 11.5978 39.8816 11.684C39.6693 11.7701 39.4774 11.9011 39.3188 12.0684C39.0101 12.4015 38.8557 12.8896 38.8557 13.5327V16.8975H37.5681V8.39905H38.8557V11.9592C39.0045 11.5067 39.299 11.1183 39.6915 10.8567C40.0952 10.5928 40.5671 10.4569 41.0469 10.4663ZM50.7266 13.4292C50.7288 13.6178 50.7137 13.8062 50.6814 13.9919H45.8923C45.9149 14.6427 46.0918 15.1251 46.4231 15.4389C46.7569 15.7539 47.199 15.923 47.6543 15.9099C48.0436 15.9223 48.4261 15.8054 48.7442 15.5768C49.0341 15.3668 49.231 15.049 49.292 14.6925H50.6699C50.5928 15.1235 50.4146 15.5293 50.1504 15.8753C49.8782 16.2268 49.5253 16.5048 49.1226 16.685C48.6783 16.885 48.1966 16.9849 47.7107 16.9777C47.1541 16.9889 46.6039 16.8545 46.1131 16.5873C45.6503 16.3273 45.2717 15.9363 45.0232 15.4618C44.7491 14.9271 44.6131 14.3304 44.6278 13.7276C44.6139 13.1286 44.75 12.5358 45.0232 12.0049C45.2717 11.5304 45.6503 11.1394 46.1131 10.8794C46.6039 10.6122 47.1541 10.4778 47.7107 10.4889C48.2668 10.4759 48.8169 10.6084 49.3083 10.8737C49.7505 11.1166 50.1151 11.4833 50.3589 11.9303C50.6066 12.3893 50.7333 12.9057 50.7265 13.4292H50.7266ZM49.4277 13.3949C49.4541 13.0355 49.3817 12.6758 49.2187 12.3558C49.076 12.0876 48.8549 11.871 48.5862 11.7356C48.3137 11.6005 48.0139 11.5317 47.7108 11.5347C47.2452 11.5201 46.7922 11.6888 46.4459 12.0056C46.1071 12.3196 45.9226 12.783 45.8925 13.3959L49.4277 13.3949ZM53.2561 11.81C53.4609 11.4031 53.774 11.0628 54.1597 10.828C54.5697 10.5818 55.0389 10.4566 55.515 10.4663V11.8903H55.131C54.5663 11.8903 54.1126 12.03 53.7701 12.3094C53.4275 12.5888 53.2566 13.0502 53.2573 13.6934V16.8983H51.9697V10.5696H53.2573L53.2561 11.81ZM58.5195 10.4892C59.2499 10.4892 59.8351 10.6788 60.2754 11.0578C60.7208 11.4457 61.0087 11.9882 61.0829 12.5797H59.8634C59.8226 12.2577 59.6681 11.9618 59.4286 11.747C59.1635 11.5267 58.8275 11.4142 58.4855 11.4312C58.2152 11.4137 57.9479 11.4974 57.7344 11.6667C57.6461 11.7461 57.5766 11.8445 57.5306 11.9548C57.4847 12.065 57.4636 12.1844 57.469 12.304C57.4654 12.3938 57.4806 12.4833 57.5137 12.5665C57.5468 12.6498 57.5971 12.725 57.661 12.787C57.7994 12.9158 57.9629 13.0136 58.1409 13.0741C58.4099 13.1649 58.6833 13.2416 58.9599 13.3038C59.4268 13.4109 60.095 13.6369 60.095 13.6369C60.095 13.6369 60.6334 13.9335 60.8404 14.1825C61.0608 14.4722 61.171 14.8331 61.151 15.1988C61.1575 15.4453 61.1073 15.69 61.0042 15.9133C60.9013 16.1366 60.7486 16.3323 60.558 16.485C60.1627 16.8143 59.6301 16.9789 58.9605 16.9789C58.1848 16.9789 57.5581 16.7951 57.0799 16.4276C56.8419 16.2431 56.6427 16.0118 56.4943 15.7474C56.3459 15.483 56.2515 15.191 56.2164 14.8887H57.4701C57.4851 15.0524 57.5329 15.2113 57.6106 15.3555C57.6883 15.4997 57.7942 15.6261 57.9219 15.7271C58.2213 15.9533 58.5884 16.0671 58.961 16.049C59.226 16.0644 59.4867 15.9761 59.6896 15.8022C59.7759 15.7234 59.8443 15.6265 59.8901 15.5181C59.9358 15.4097 59.9577 15.2925 59.9544 15.1747C59.9592 15.077 59.9435 14.9794 59.9085 14.8883C59.8734 14.7973 59.8197 14.7148 59.751 14.6464C59.6047 14.5096 59.4314 14.4059 59.2428 14.342C58.969 14.2501 58.6899 14.1753 58.4071 14.1181C58.0339 14.034 57.6661 13.9264 57.3059 13.7961C57.0241 13.6893 56.7748 13.5091 56.583 13.2735C56.3708 12.9932 56.2645 12.6448 56.2836 12.2916C56.2767 12.0425 56.3266 11.7952 56.4294 11.569C56.5323 11.3428 56.6854 11.144 56.8766 10.9881C57.2719 10.6555 57.8197 10.4892 58.5199 10.4892H58.5195ZM65.206 10.4892C66.0119 10.4892 66.6783 10.7055 67.2051 11.1381C67.7376 11.5803 68.0882 12.2092 68.1876 12.901H66.8204C66.7611 12.5295 66.5653 12.1947 66.2726 11.9644C65.957 11.7302 65.5731 11.6109 65.1826 11.6256C64.9502 11.6199 64.7192 11.6646 64.5049 11.7567C64.2907 11.8487 64.0983 11.9861 63.9403 12.1596C63.609 12.5156 63.4433 13.0381 63.4433 13.7272C63.4433 14.4163 63.609 14.9407 63.9403 15.3005C64.0974 15.4755 64.2896 15.6142 64.5039 15.7073C64.7182 15.8004 64.9496 15.8457 65.1826 15.8402C65.5743 15.8555 65.9593 15.7342 66.2739 15.4966C66.5659 15.2634 66.7614 14.9274 66.8217 14.5549H68.1889C68.0886 15.248 67.7385 15.8784 67.2064 16.3234C66.6793 16.7598 66.0129 16.978 65.2072 16.978C64.6507 16.9892 64.1005 16.8548 63.6097 16.5876C63.1468 16.3276 62.7683 15.9366 62.5197 15.4621C62.2451 14.9275 62.1087 14.3307 62.1231 13.7278C62.1091 13.1287 62.2453 12.5359 62.5184 12.005C62.767 11.5305 63.1455 11.1395 63.6084 10.8795C64.0995 10.6123 64.6497 10.4779 65.2065 10.4892H65.206ZM71.9264 10.4892C72.4401 10.4738 72.9455 10.6222 73.3721 10.9136C73.7646 11.1881 74.0612 11.5822 74.2193 12.0391V10.5696H75.5068V16.8975H74.2193V15.4275C74.0612 15.8845 73.7646 16.2786 73.3721 16.553C72.9455 16.8445 72.4401 16.9928 71.9264 16.9774C71.4165 16.9862 70.914 16.851 70.4751 16.587C70.0418 16.318 69.6947 15.927 69.4755 15.4615C69.2235 14.9201 69.0997 14.3262 69.1141 13.7273C69.1004 13.1323 69.2242 12.5422 69.4755 12.0046C69.6947 11.539 70.0418 11.1481 70.4751 10.8791C70.9143 10.6152 71.4169 10.4802 71.927 10.4892H71.9264ZM72.3218 11.6377C72.0672 11.6261 71.8131 11.6697 71.5765 11.7657C71.3399 11.8618 71.126 12.008 70.9494 12.1947C70.6067 12.566 70.4355 13.0771 70.4355 13.7279C70.4355 14.3787 70.6069 14.8898 70.9499 15.261C71.1265 15.4478 71.3402 15.5941 71.5769 15.6903C71.8136 15.7864 72.0676 15.8302 72.3222 15.8186C72.6632 15.824 72.9989 15.7347 73.2935 15.5601C73.5817 15.3858 73.8164 15.1332 73.9713 14.8309C74.1433 14.4902 74.2286 14.1112 74.2198 13.7284C74.2273 13.3475 74.142 12.9707 73.9713 12.6315C73.8176 12.3267 73.5828 12.072 73.2935 11.8965C72.9991 11.7217 72.6632 11.6322 72.3222 11.6376L72.3218 11.6377ZM80.5331 10.467C81.2561 10.467 81.8358 10.7044 82.2725 11.1791C82.7091 11.6538 82.9275 12.3314 82.9276 13.2118V16.8975H81.6401V13.3489C81.6401 12.7824 81.497 12.344 81.2109 12.0339C81.0587 11.8761 80.8752 11.753 80.6727 11.6729C80.4702 11.5927 80.2532 11.5572 80.0362 11.5688C79.8079 11.5586 79.5801 11.5978 79.3678 11.684C79.1555 11.7701 78.9636 11.9011 78.805 12.0684C78.4963 12.4015 78.3419 12.8896 78.3419 13.5327V16.8975H77.0543V10.5696H78.3419V11.9598C78.4907 11.5073 78.7852 11.1188 79.1776 10.8573C79.5815 10.5931 80.0534 10.457 80.5336 10.4663L80.5331 10.467Z" fill="white"/>
<path d="M9.71018 12.5486C9.7102 12.4492 9.72953 12.3508 9.76705 12.259C9.80457 12.1672 9.85955 12.0839 9.92883 12.0138C9.99813 11.9436 10.0803 11.8881 10.1708 11.8504C10.2612 11.8127 10.3581 11.7935 10.4559 11.794L11.6922 11.7981C11.8893 11.7981 12.0783 11.8777 12.2177 12.0195C12.3571 12.1612 12.4354 12.3534 12.4354 12.5538V17.307C12.5746 17.265 12.7533 17.2202 12.9489 17.1734C13.0848 17.1409 13.2059 17.0628 13.2926 16.9515C13.3792 16.8403 13.4264 16.7026 13.4263 16.5606V10.6646C13.4263 10.4641 13.5046 10.2719 13.644 10.1301C13.7834 9.98838 13.9724 9.90874 14.1696 9.9087H15.4083C15.6054 9.90874 15.7945 9.98838 15.9339 10.1301C16.0732 10.2719 16.1516 10.4641 16.1516 10.6646V16.1367C16.1516 16.1367 16.4617 16.0091 16.7638 15.8794C16.876 15.8312 16.9718 15.7504 17.0392 15.6471C17.1065 15.5439 17.1425 15.4228 17.1426 15.2989V8.77528C17.1426 8.57488 17.2209 8.38268 17.3603 8.24096C17.4996 8.09924 17.6886 8.01962 17.8857 8.01958H19.1245C19.3216 8.01958 19.5106 8.09919 19.65 8.24092C19.7894 8.38263 19.8677 8.57485 19.8677 8.77528V14.1473C20.9417 13.3559 22.03 12.4041 22.8937 11.2596C23.0191 11.0934 23.102 10.8984 23.1351 10.6917C23.1682 10.4851 23.1505 10.2734 23.0836 10.0754C22.6837 8.90579 22.0483 7.83393 21.2177 6.9284C20.3871 6.02288 19.3798 5.30362 18.2601 4.81666C17.1405 4.32971 15.9332 4.08578 14.7155 4.10048C13.4978 4.11518 12.2965 4.3882 11.1886 4.90205C10.0806 5.41591 9.09035 6.15928 8.28116 7.08461C7.47197 8.00993 6.86167 9.09684 6.48932 10.2758C6.11697 11.4547 5.99077 12.6996 6.11879 13.931C6.24682 15.1624 6.62624 16.353 7.23279 17.4267C7.33845 17.6119 7.49391 17.7626 7.68088 17.8611C7.86785 17.9596 8.07859 18.0018 8.28834 17.9828C8.52265 17.9619 8.81439 17.9322 9.16125 17.8907C9.31224 17.8733 9.45165 17.8 9.5529 17.6848C9.65417 17.5696 9.7102 17.4205 9.71033 17.266L9.71018 12.5486Z" fill="white"/>
<path d="M9.68359 20.1722C10.9893 21.1381 12.5324 21.7179 14.1421 21.8474C15.7518 21.9768 17.3654 21.651 18.8043 20.9058C20.2432 20.1607 21.4512 19.0253 22.2949 17.6254C23.1384 16.2255 23.5847 14.6155 23.5843 12.9736C23.5843 12.7688 23.575 12.5661 23.5616 12.3646C20.3637 17.214 14.4592 19.4812 9.68387 20.1715" fill="white"/>
</g>
</g>
</g>
<path d="M93 16L99 10" stroke="white" stroke-linecap="round" stroke-linejoin="round"/>
<path d="M94.5 10H99V14.5" stroke="white" stroke-linecap="round" stroke-linejoin="round"/>
<defs>
<clipPath id="clip0_4044_10835">
<rect width="77" height="18" fill="white" transform="translate(6 4)"/>
</clipPath>
</defs>
</svg>
