<svg width="30" height="20" viewBox="0 0 30 20" fill="none" xmlns="http://www.w3.org/2000/svg">
<path d="M6.14364 4.21368C11.0293 -0.737893 18.9707 -0.737893 23.8747 4.21368L24.4602 4.8018C24.6981 5.04843 24.6981 5.44683 24.4602 5.69346L22.4474 7.72341C22.3193 7.85622 22.118 7.85622 22.0082 7.72341L21.2031 6.90764C17.7813 3.45482 12.2553 3.45482 8.83349 6.90764L7.97347 7.78033C7.84538 7.91313 7.6441 7.91313 7.53431 7.78033L5.5215 5.75037C5.28362 5.50374 5.28362 5.10534 5.5215 4.85871L6.16194 4.21368H6.14364ZM28.0284 8.42536L29.8216 10.2466C30.0595 10.4933 30.0595 10.8917 29.8216 11.1383L21.7338 19.315C21.4959 19.5617 21.0933 19.5617 20.8554 19.315L15.1098 13.5097C15.0549 13.4528 14.9451 13.4528 14.8902 13.5097L9.14456 19.315C8.90668 19.5617 8.50412 19.5617 8.26624 19.315L0.178408 11.1383C-0.0594693 10.8917 -0.0594693 10.4933 0.178408 10.2466L1.97164 8.42536C2.20952 8.17873 2.61208 8.17873 2.84995 8.42536L8.59561 14.2307C8.6505 14.2876 8.76029 14.2876 8.81519 14.2307L14.5608 8.42536C14.7987 8.17873 15.2013 8.17873 15.4392 8.42536L21.1848 14.2307C21.2397 14.2876 21.3495 14.2876 21.4044 14.2307L27.15 8.42536C27.3879 8.17873 27.7905 8.17873 28.0284 8.42536Z" fill="white"/>
</svg>
