<svg width="48" height="37" viewBox="0 0 48 37" fill="none" xmlns="http://www.w3.org/2000/svg">
<path d="M10.9333 36.9999V17.5102L0 8.86328V32.8824C0 35.6274 1.33333 36.9999 4 36.9999" fill="#4285F4"/>
<path d="M10.4004 17.3729L24.0004 27.9413L37.6004 17.3729V3.92224L24.0004 14.4906L10.4004 3.92224" fill="#EA4335"/>
<path d="M37.0664 36.9999V17.5102L47.9997 8.86328V32.8824C47.9997 35.6274 46.6664 36.9999 43.9997 36.9999" fill="#34A853"/>
<path d="M0 9.13786L10.9333 17.7847V4.33404L6.93333 1.17725C3.33333 -1.70504 0 1.17725 0 4.7458" fill="#C5221F"/>
<path d="M47.9997 9.13786L37.0664 17.7847V4.33404L41.0664 1.17725C44.6664 -1.70504 47.9997 1.17725 47.9997 4.7458" fill="#FBBC04"/>
</svg>
