<svg width="40" height="40" viewBox="0 0 40 40" fill="none" xmlns="http://www.w3.org/2000/svg">
<path d="M27.229 33.357H19.87C17.89 33.357 16.108 33.027 14.524 32.367C12.94 31.729 11.587 30.816 10.465 29.628C9.365 28.44 8.507 27.021 7.891 25.371C7.297 23.699 7 21.851 7 19.827C7 17.803 7.308 15.944 7.924 14.25C8.54 12.556 9.409 11.104 10.531 9.894C11.675 8.662 13.05 7.705 14.656 7.023C16.284 6.341 18.088 6 20.068 6C21.762 6 23.357 6.264 24.853 6.792C26.371 7.298 27.691 8.079 28.813 9.135C29.935 10.169 30.826 11.467 31.486 13.029C32.146 14.591 32.476 16.428 32.476 18.54C32.476 19.75 32.355 20.872 32.113 21.906C31.871 22.918 31.497 23.798 30.991 24.546C30.507 25.294 29.891 25.877 29.143 26.295C28.395 26.713 27.526 26.922 26.536 26.922C25.414 26.922 24.545 26.658 23.929 26.13C23.313 25.58 22.961 24.865 22.873 23.985H22.708C22.378 24.887 21.883 25.602 21.223 26.13C20.585 26.658 19.76 26.922 18.748 26.922C18 26.922 17.296 26.779 16.636 26.493C15.976 26.185 15.393 25.745 14.887 25.173C14.403 24.579 14.018 23.842 13.732 22.962C13.446 22.06 13.303 21.015 13.303 19.827C13.303 18.639 13.446 17.605 13.732 16.725C14.018 15.823 14.403 15.086 14.887 14.514C15.393 13.92 15.976 13.48 16.636 13.194C17.296 12.886 18 12.732 18.748 12.732C19.76 12.732 20.552 12.985 21.124 13.491C21.696 13.975 22.103 14.569 22.345 15.273H22.51V13.029H25.381V22.599C25.381 23.325 25.513 23.831 25.777 24.117C26.063 24.403 26.481 24.546 27.031 24.546C27.955 24.546 28.659 24.073 29.143 23.127C29.649 22.159 29.902 20.784 29.902 19.002V17.715C29.902 16.285 29.649 14.998 29.143 13.854C28.659 12.688 27.977 11.709 27.097 10.917C26.217 10.103 25.172 9.476 23.962 9.036C22.752 8.596 21.443 8.376 20.035 8.376C18.473 8.376 17.043 8.651 15.745 9.201C14.469 9.729 13.369 10.466 12.445 11.412C11.543 12.336 10.839 13.447 10.333 14.745C9.827 16.021 9.574 17.418 9.574 18.936V20.586C9.574 22.126 9.816 23.534 10.3 24.81C10.806 26.064 11.51 27.153 12.412 28.077C13.314 28.979 14.392 29.683 15.646 30.189C16.922 30.695 18.341 30.948 19.903 30.948H27.229V33.357ZM19.606 24.381C20.53 24.381 21.245 24.128 21.751 23.622C22.257 23.116 22.51 22.467 22.51 21.675V17.715C22.51 17.011 22.257 16.428 21.751 15.966C21.245 15.482 20.53 15.24 19.606 15.24C18.594 15.24 17.824 15.548 17.296 16.164C16.768 16.758 16.504 17.55 16.504 18.54V21.081C16.504 22.071 16.768 22.874 17.296 23.49C17.824 24.084 18.594 24.381 19.606 24.381Z" fill="white"/>
</svg>
