<svg width="310" height="310" viewBox="0 0 310 310" fill="none" xmlns="http://www.w3.org/2000/svg">
<path d="M8.37838 0H0V8.37838H8.37838V0Z" fill="white"/>
<path d="M16.7567 0H8.37838V8.37838H16.7567V0Z" fill="white"/>
<path d="M25.1352 0H16.7567V8.37838H25.1352V0Z" fill="white"/>
<path d="M33.5135 0H25.1352V8.37838H33.5135V0Z" fill="white"/>
<path d="M41.8918 0H33.5135V8.37838H41.8918V0Z" fill="white"/>
<path d="M50.2703 0H41.8918V8.37838H50.2703V0Z" fill="white"/>
<path d="M58.6486 0H50.2703V8.37838H58.6486V0Z" fill="white"/>
<path d="M75.4054 0H67.027V8.37838H75.4054V0Z" fill="white"/>
<path d="M83.7837 0H75.4054V8.37838H83.7837V0Z" fill="white"/>
<path d="M100.541 0H92.1622V8.37838H100.541V0Z" fill="white"/>
<path d="M108.919 0H100.541V8.37838H108.919V0Z" fill="white"/>
<path d="M117.297 0H108.919V8.37838H117.297V0Z" fill="white"/>
<path d="M125.676 0H117.297V8.37838H125.676V0Z" fill="white"/>
<path d="M150.811 0H142.432V8.37838H150.811V0Z" fill="white"/>
<path d="M159.189 0H150.811V8.37838H159.189V0Z" fill="white"/>
<path d="M167.568 0H159.189V8.37838H167.568V0Z" fill="white"/>
<path d="M175.946 0H167.568V8.37838H175.946V0Z" fill="white"/>
<path d="M192.703 0H184.324V8.37838H192.703V0Z" fill="white"/>
<path d="M209.459 0H201.081V8.37838H209.459V0Z" fill="white"/>
<path d="M226.216 0H217.838V8.37838H226.216V0Z" fill="white"/>
<path d="M259.73 0H251.351V8.37838H259.73V0Z" fill="white"/>
<path d="M268.108 0H259.73V8.37838H268.108V0Z" fill="white"/>
<path d="M276.486 0H268.108V8.37838H276.486V0Z" fill="white"/>
<path d="M284.865 0H276.486V8.37838H284.865V0Z" fill="white"/>
<path d="M293.243 0H284.865V8.37838H293.243V0Z" fill="white"/>
<path d="M301.622 0H293.243V8.37838H301.622V0Z" fill="white"/>
<path d="M310 0H301.622V8.37838H310V0Z" fill="white"/>
<path d="M8.37838 8.37838H0V16.7569H8.37838V8.37838Z" fill="white"/>
<path d="M58.6486 8.37838H50.2703L50.2702 16.7569H58.6486V8.37838Z" fill="white"/>
<path d="M75.4054 8.37838H67.027V16.7569H75.4054V8.37838Z" fill="white"/>
<path d="M92.1622 8.37838H83.7837L83.7838 16.7569H92.1622L92.1622 8.37838Z" fill="white"/>
<path d="M108.919 8.37838H100.541L100.54 16.7569H108.919V8.37838Z" fill="white"/>
<path d="M117.297 8.37838H108.919V16.7569H117.297V8.37838Z" fill="white"/>
<path d="M125.676 8.37838H117.297V16.7569H125.676V8.37838Z" fill="white"/>
<path d="M134.054 8.37848L125.676 8.37838V16.7569H134.054V8.37848Z" fill="white"/>
<path d="M142.432 8.37838L134.054 8.37848V16.7569H142.432L142.432 8.37838Z" fill="white"/>
<path d="M167.568 8.37838H159.189L159.189 16.7569H167.568V8.37838Z" fill="white"/>
<path d="M192.703 8.37838H184.324V16.7569H192.703V8.37838Z" fill="white"/>
<path d="M201.081 8.37838H192.703V16.7569H201.081L201.081 8.37838Z" fill="white"/>
<path d="M209.459 8.37838H201.081L201.081 16.7569H209.459V8.37838Z" fill="white"/>
<path d="M217.838 8.37838H209.459V16.7569H217.838L217.838 8.37838Z" fill="white"/>
<path d="M234.594 8.37848L226.216 8.37838L226.216 16.7569H234.594V8.37848Z" fill="white"/>
<path d="M259.73 8.37838H251.351V16.7569H259.73V8.37838Z" fill="white"/>
<path d="M310 8.37838H301.622L301.622 16.7569H310V8.37838Z" fill="white"/>
<path d="M8.37838 16.7569H0V25.1353H8.37838V16.7569Z" fill="white"/>
<path d="M25.1352 16.757H16.7568V25.1353H25.1352V16.757Z" fill="white"/>
<path d="M33.5135 16.757H25.1352V25.1353H33.5135V16.757Z" fill="white"/>
<path d="M41.8918 16.757H33.5135V25.1353H41.8918V16.757Z" fill="white"/>
<path d="M58.6486 16.7569H50.2702V25.1353H58.6486V16.7569Z" fill="white"/>
<path d="M75.4054 16.7569H67.027V25.1353H75.4054V16.7569Z" fill="white"/>
<path d="M83.7838 16.7569H75.4054V25.1353H83.7837L83.7838 16.7569Z" fill="white"/>
<path d="M92.1622 16.7569H83.7838L83.7837 25.1353H92.1622V16.7569Z" fill="white"/>
<path d="M100.54 16.7569H92.1622V25.1353H100.541L100.54 16.7569Z" fill="white"/>
<path d="M108.919 16.7569H100.54L100.541 25.1353H108.919V16.7569Z" fill="white"/>
<path d="M117.297 16.7569H108.919V25.1353H117.297V16.7569Z" fill="white"/>
<path d="M142.432 16.7569H134.054L134.054 25.1353H142.432V16.7569Z" fill="white"/>
<path d="M159.189 16.7569L150.811 16.757V25.1353H159.189L159.189 16.7569Z" fill="white"/>
<path d="M192.703 16.7569H184.324V25.1353H192.703V16.7569Z" fill="white"/>
<path d="M201.081 16.7569H192.703V25.1353H201.081V16.7569Z" fill="white"/>
<path d="M226.216 16.7569H217.838L217.838 25.1353H226.216L226.216 16.7569Z" fill="white"/>
<path d="M242.973 16.757L234.594 16.7569L234.595 25.1353H242.973V16.757Z" fill="white"/>
<path d="M259.73 16.7569H251.351V25.1353H259.73V16.7569Z" fill="white"/>
<path d="M276.486 16.757H268.108V25.1353H276.486V16.757Z" fill="white"/>
<path d="M284.865 16.757H276.486V25.1353H284.865V16.757Z" fill="white"/>
<path d="M293.243 16.757H284.865V25.1353H293.243V16.757Z" fill="white"/>
<path d="M310 16.7569H301.622V25.1353H310V16.7569Z" fill="white"/>
<path d="M8.37838 25.1353H0V33.5138H8.37838V25.1353Z" fill="white"/>
<path d="M25.1352 25.1353H16.7568V33.5138H25.1352V25.1353Z" fill="white"/>
<path d="M33.5135 25.1353H25.1352V33.5138H33.5135V25.1353Z" fill="white"/>
<path d="M41.8918 25.1353H33.5135V33.5138H41.8918V25.1353Z" fill="white"/>
<path d="M58.6486 25.1353H50.2702V33.5138H58.6486V25.1353Z" fill="white"/>
<path d="M92.1622 25.1353H83.7837L83.7838 33.5138H92.1622V25.1353Z" fill="white"/>
<path d="M117.297 25.1353H108.919L108.919 33.5138H117.297V25.1353Z" fill="white"/>
<path d="M125.676 25.1354L117.297 25.1353V33.5138H125.676V25.1354Z" fill="white"/>
<path d="M134.054 25.1353L125.676 25.1354V33.5138H134.054L134.054 25.1353Z" fill="white"/>
<path d="M142.432 25.1353H134.054L134.054 33.5138H142.432V25.1353Z" fill="white"/>
<path d="M150.811 25.1353H142.432V33.5138H150.811L150.811 25.1353Z" fill="white"/>
<path d="M159.189 25.1353H150.811L150.811 33.5138H159.189V25.1353Z" fill="white"/>
<path d="M226.216 25.1353H217.838V33.5138H226.216V25.1353Z" fill="white"/>
<path d="M234.595 25.1353H226.216V33.5138H234.594L234.595 25.1353Z" fill="white"/>
<path d="M242.973 25.1353H234.595L234.594 33.5138H242.973V25.1353Z" fill="white"/>
<path d="M259.73 25.1353H251.351V33.5138H259.73V25.1353Z" fill="white"/>
<path d="M276.486 25.1353H268.108V33.5138H276.486V25.1353Z" fill="white"/>
<path d="M284.865 25.1353H276.486V33.5138H284.865V25.1353Z" fill="white"/>
<path d="M293.243 25.1353H284.865V33.5138H293.243V25.1353Z" fill="white"/>
<path d="M310 25.1353H301.622V33.5138H310V25.1353Z" fill="white"/>
<path d="M8.37838 33.5138H0V41.8917H8.37838V33.5138Z" fill="white"/>
<path d="M25.1352 33.5138H16.7568V41.8917H25.1352V33.5138Z" fill="white"/>
<path d="M33.5135 33.5138H25.1352V41.8917H33.5135V33.5138Z" fill="white"/>
<path d="M41.8918 33.5138H33.5135V41.8917H41.8918V33.5138Z" fill="white"/>
<path d="M58.6486 33.5138H50.2702V41.8917H58.6486V33.5138Z" fill="white"/>
<path d="M92.1622 33.5138H83.7838V41.8917H92.1622V33.5138Z" fill="white"/>
<path d="M125.676 33.5138H117.297L117.297 41.8917H125.676V33.5138Z" fill="white"/>
<path d="M142.432 33.5138H134.054L134.054 41.8917H142.432V33.5138Z" fill="white"/>
<path d="M150.811 33.5138H142.432V41.8917H150.811V33.5138Z" fill="white"/>
<path d="M167.568 33.5133L159.189 33.5138L159.189 41.8917H167.568V33.5133Z" fill="white"/>
<path d="M175.946 33.5133H167.568V41.8917H175.946V33.5133Z" fill="white"/>
<path d="M184.324 33.5133H175.946V41.8917H184.324V33.5133Z" fill="white"/>
<path d="M201.081 33.5133H192.703V41.8917H201.081V33.5133Z" fill="white"/>
<path d="M234.594 33.5138H226.216L226.216 41.8917H234.594V33.5138Z" fill="white"/>
<path d="M259.73 33.5138H251.351V41.8917H259.73V33.5138Z" fill="white"/>
<path d="M276.486 33.5138H268.108V41.8917H276.486V33.5138Z" fill="white"/>
<path d="M284.865 33.5138H276.486V41.8917H284.865V33.5138Z" fill="white"/>
<path d="M293.243 33.5138H284.865V41.8917H293.243V33.5138Z" fill="white"/>
<path d="M310 33.5138H301.622V41.8917H310V33.5138Z" fill="white"/>
<path d="M8.37838 41.8917H0V50.2702H8.37838V41.8917Z" fill="white"/>
<path d="M58.6486 41.8917H50.2702V50.2702H58.6486V41.8917Z" fill="white"/>
<path d="M75.4054 41.8918H67.027V50.2702H75.4054V41.8918Z" fill="white"/>
<path d="M100.541 41.8918L92.1622 41.8917L92.1622 50.2702H100.541V41.8918Z" fill="white"/>
<path d="M108.919 41.8918H100.541V50.2702H108.919V41.8918Z" fill="white"/>
<path d="M117.297 41.8917L108.919 41.8918V50.2702H117.297L117.297 41.8917Z" fill="white"/>
<path d="M150.811 41.8917H142.432L142.432 50.2702H150.811V41.8917Z" fill="white"/>
<path d="M159.189 41.8917H150.811V50.2702H159.189L159.189 41.8917Z" fill="white"/>
<path d="M209.459 41.8918L201.081 41.8917L201.081 50.2702H209.459V41.8918Z" fill="white"/>
<path d="M217.838 41.8918H209.459V50.2702H217.838V41.8918Z" fill="white"/>
<path d="M234.594 41.8917H226.216V50.2702H234.594V41.8917Z" fill="white"/>
<path d="M259.73 41.8917H251.351V50.2702H259.73V41.8917Z" fill="white"/>
<path d="M310 41.8917H301.622V50.2702H310V41.8917Z" fill="white"/>
<path d="M8.37838 50.2702H0V58.6486H8.37838V50.2702Z" fill="white"/>
<path d="M16.7567 50.2703L8.37838 50.2702V58.6486H16.7567V50.2703Z" fill="white"/>
<path d="M25.1352 50.2703H16.7567V58.6486H25.1352V50.2703Z" fill="white"/>
<path d="M33.5135 50.2703H25.1352V58.6486H33.5135V50.2703Z" fill="white"/>
<path d="M41.8918 50.2703H33.5135V58.6486H41.8918V50.2703Z" fill="white"/>
<path d="M50.2702 50.2702L41.8918 50.2703V58.6486H50.2703L50.2702 50.2702Z" fill="white"/>
<path d="M58.6486 50.2702H50.2702L50.2703 58.6486H58.6486V50.2702Z" fill="white"/>
<path d="M75.4054 50.2702H67.027V58.6486H75.4054V50.2702Z" fill="white"/>
<path d="M92.1622 50.2702L83.7838 50.2703V58.6486H92.1622L92.1622 50.2702Z" fill="white"/>
<path d="M108.919 50.2702H100.541L100.54 58.6486H108.919V50.2702Z" fill="white"/>
<path d="M125.676 50.2703L117.297 50.2702L117.297 58.6486H125.676V50.2703Z" fill="white"/>
<path d="M142.432 50.2702L134.054 50.2703V58.6486H142.432L142.432 50.2702Z" fill="white"/>
<path d="M159.189 50.2702H150.811L150.811 58.6486H159.189V50.2702Z" fill="white"/>
<path d="M175.946 50.2703H167.568V58.6486H175.946V50.2703Z" fill="white"/>
<path d="M192.703 50.2703H184.324V58.6486H192.703V50.2703Z" fill="white"/>
<path d="M209.459 50.2702H201.081V58.6486H209.459V50.2702Z" fill="white"/>
<path d="M226.216 50.2702H217.838L217.838 58.6486H226.216L226.216 50.2702Z" fill="white"/>
<path d="M242.973 50.2703L234.594 50.2702L234.595 58.6486H242.973V50.2703Z" fill="white"/>
<path d="M259.73 50.2702H251.351V58.6486H259.73V50.2702Z" fill="white"/>
<path d="M268.108 50.2703L259.73 50.2702V58.6486H268.108V50.2703Z" fill="white"/>
<path d="M276.486 50.2703H268.108V58.6486H276.486V50.2703Z" fill="white"/>
<path d="M284.865 50.2703H276.486V58.6486H284.865V50.2703Z" fill="white"/>
<path d="M293.243 50.2703H284.865V58.6486H293.243V50.2703Z" fill="white"/>
<path d="M301.622 50.2702L293.243 50.2703V58.6486H301.622L301.622 50.2702Z" fill="white"/>
<path d="M310 50.2702H301.622L301.622 58.6486H310V50.2702Z" fill="white"/>
<path d="M75.4054 58.6486H67.027V67.0271H75.4054V58.6486Z" fill="white"/>
<path d="M92.1622 58.6486H83.7838V67.0271H92.1622V58.6486Z" fill="white"/>
<path d="M100.54 58.6486H92.1622V67.0271H100.541L100.54 58.6486Z" fill="white"/>
<path d="M117.297 58.6486H108.919L108.919 67.0271H117.297L117.297 58.6486Z" fill="white"/>
<path d="M142.432 58.6486H134.054V67.0271H142.432V58.6486Z" fill="white"/>
<path d="M159.189 58.6486H150.811V67.0271H159.189V58.6486Z" fill="white"/>
<path d="M184.324 58.6486H175.946L175.946 67.0271H184.324L184.324 58.6486Z" fill="white"/>
<path d="M226.216 58.6486H217.838V67.0271H226.216V58.6486Z" fill="white"/>
<path d="M234.595 58.6486H226.216V67.0271H234.594L234.595 58.6486Z" fill="white"/>
<path d="M242.973 58.6486H234.595L234.594 67.0271H242.973V58.6486Z" fill="white"/>
<path d="M25.1352 67.0272H16.7568V75.4056H25.1352V67.0272Z" fill="white"/>
<path d="M33.5135 67.0272H25.1352V75.4056H33.5135V67.0272Z" fill="white"/>
<path d="M41.8918 67.0272H33.5135V75.4056H41.8918V67.0272Z" fill="white"/>
<path d="M58.6486 67.0272H50.2702V75.4056H58.6486V67.0272Z" fill="white"/>
<path d="M75.4054 67.0271H67.027V75.4056H75.4054V67.0271Z" fill="white"/>
<path d="M83.7838 67.0271H75.4054V75.4056H83.7837L83.7838 67.0271Z" fill="white"/>
<path d="M100.541 67.0271H92.1622L92.1622 75.4056H100.541V67.0271Z" fill="white"/>
<path d="M117.297 67.0271H108.919V75.4056H117.297V67.0271Z" fill="white"/>
<path d="M125.676 67.0272L117.297 67.0271V75.4056H125.676V67.0272Z" fill="white"/>
<path d="M150.811 67.0271H142.432L142.432 75.4056H150.811L150.811 67.0271Z" fill="white"/>
<path d="M184.324 67.0271H175.946V75.4056H184.324V67.0271Z" fill="white"/>
<path d="M209.459 67.0272H201.081V75.4056H209.459V67.0272Z" fill="white"/>
<path d="M217.838 67.0271L209.459 67.0272V75.4056H217.838L217.838 67.0271Z" fill="white"/>
<path d="M234.594 67.0271H226.216L226.216 75.4056H234.594V67.0271Z" fill="white"/>
<path d="M251.351 67.0272L242.973 67.0271L242.973 75.4056H251.351V67.0272Z" fill="white"/>
<path d="M259.73 67.0272H251.351V75.4056H259.73V67.0272Z" fill="white"/>
<path d="M268.108 67.0272H259.73V75.4056H268.108V67.0272Z" fill="white"/>
<path d="M293.243 67.0272H284.865V75.4056H293.243V67.0272Z" fill="white"/>
<path d="M301.622 67.0272H293.243V75.4056H301.622V67.0272Z" fill="white"/>
<path d="M310 67.0272H301.622V75.4056H310V67.0272Z" fill="white"/>
<path d="M75.4054 75.4056H67.027V83.7841H75.4054V75.4056Z" fill="white"/>
<path d="M92.1622 75.4056H83.7837L83.7838 83.7841H92.1622L92.1622 75.4056Z" fill="white"/>
<path d="M100.541 75.4056H92.1622L92.1622 83.7841H100.541V75.4056Z" fill="white"/>
<path d="M108.919 75.4056H100.541V83.7841H108.919L108.919 75.4056Z" fill="white"/>
<path d="M134.054 75.4057L125.676 75.4056L125.676 83.7841H134.054V75.4057Z" fill="white"/>
<path d="M142.432 75.4056L134.054 75.4057V83.7841H142.432L142.432 75.4056Z" fill="white"/>
<path d="M167.568 75.4057H159.189V83.7841H167.568V75.4057Z" fill="white"/>
<path d="M184.324 75.4056H175.946V83.7841H184.324V75.4056Z" fill="white"/>
<path d="M192.703 75.4057L184.324 75.4056V83.7841H192.703V75.4057Z" fill="white"/>
<path d="M226.216 75.4056H217.838L217.838 83.7841H226.216L226.216 75.4056Z" fill="white"/>
<path d="M234.594 75.4056H226.216L226.216 83.7841H234.594V75.4056Z" fill="white"/>
<path d="M242.973 75.4056H234.594V83.7841H242.973L242.973 75.4056Z" fill="white"/>
<path d="M251.351 75.4056H242.973L242.973 83.7841H251.351V75.4056Z" fill="white"/>
<path d="M259.73 75.4056H251.351V83.7841H259.73V75.4056Z" fill="white"/>
<path d="M276.486 75.4057L268.108 75.4056L268.108 83.7841H276.486V75.4057Z" fill="white"/>
<path d="M284.865 75.4056L276.486 75.4057V83.7841H284.865L284.865 75.4056Z" fill="white"/>
<path d="M50.2703 83.7836H41.8919V92.162H50.2703V83.7836Z" fill="white"/>
<path d="M58.6486 83.7836H50.2703V92.162H58.6486V83.7836Z" fill="white"/>
<path d="M67.027 83.7841L58.6486 83.7836V92.162H67.0269L67.027 83.7841Z" fill="white"/>
<path d="M83.7838 83.7841H75.4054L75.4054 92.162H83.7837L83.7838 83.7841Z" fill="white"/>
<path d="M92.1622 83.7841H83.7838L83.7837 92.162H92.1622V83.7841Z" fill="white"/>
<path d="M108.919 83.7841H100.541L100.54 92.162H108.919V83.7841Z" fill="white"/>
<path d="M117.297 83.7836L108.919 83.7841V92.162H117.297V83.7836Z" fill="white"/>
<path d="M134.054 83.7841H125.676V92.162H134.054V83.7841Z" fill="white"/>
<path d="M142.432 83.7841H134.054V92.162H142.432V83.7841Z" fill="white"/>
<path d="M150.811 83.7836L142.432 83.7841V92.162H150.811V83.7836Z" fill="white"/>
<path d="M159.189 83.7841L150.811 83.7836V92.162H159.189L159.189 83.7841Z" fill="white"/>
<path d="M175.946 83.7841H167.568L167.568 92.162H175.946L175.946 83.7841Z" fill="white"/>
<path d="M217.838 83.7841L209.459 83.7836V92.162H217.838L217.838 83.7841Z" fill="white"/>
<path d="M234.594 83.7841H226.216L226.216 92.162H234.594V83.7841Z" fill="white"/>
<path d="M242.973 83.7841H234.594V92.162H242.973V83.7841Z" fill="white"/>
<path d="M259.73 83.7841H251.351L251.351 92.162H259.73V83.7841Z" fill="white"/>
<path d="M268.108 83.7841H259.73V92.162H268.108L268.108 83.7841Z" fill="white"/>
<path d="M276.486 83.7841H268.108L268.108 92.162H276.486V83.7841Z" fill="white"/>
<path d="M293.243 83.7836L284.865 83.7841L284.865 92.162H293.243V83.7836Z" fill="white"/>
<path d="M310 83.7836H301.622V92.162H310V83.7836Z" fill="white"/>
<path d="M16.7567 92.1621H8.37832V100.54H16.7567V92.1621Z" fill="white"/>
<path d="M25.1352 92.1621H16.7567V100.54H25.1352V92.1621Z" fill="white"/>
<path d="M41.8919 92.162L33.5134 92.1621V100.54H41.8918L41.8919 92.162Z" fill="white"/>
<path d="M50.2703 92.162H41.8919L41.8918 100.54H50.2703V92.162Z" fill="white"/>
<path d="M83.7837 92.162H75.4054V100.54H83.7837V92.162Z" fill="white"/>
<path d="M108.919 92.162H100.54V100.54H108.919V92.162Z" fill="white"/>
<path d="M117.297 92.162H108.919V100.54H117.297V92.162Z" fill="white"/>
<path d="M125.676 92.162H117.297V100.54H125.676L125.676 92.162Z" fill="white"/>
<path d="M134.054 92.162H125.676L125.676 100.54H134.054V92.162Z" fill="white"/>
<path d="M142.432 92.162H134.054V100.54H142.432V92.162Z" fill="white"/>
<path d="M184.324 92.1621L175.946 92.162L175.946 100.54H184.324V92.1621Z" fill="white"/>
<path d="M192.703 92.1621H184.324V100.54H192.703V92.1621Z" fill="white"/>
<path d="M201.081 92.1621H192.703V100.54H201.081V92.1621Z" fill="white"/>
<path d="M209.459 92.162L201.081 92.1621V100.54H209.459L209.459 92.162Z" fill="white"/>
<path d="M226.216 92.162H217.838L217.838 100.54H226.216L226.216 92.162Z" fill="white"/>
<path d="M251.351 92.162H242.973L242.973 100.54H251.351L251.351 92.162Z" fill="white"/>
<path d="M301.622 92.162H293.243L293.243 100.54H301.622L301.622 92.162Z" fill="white"/>
<path d="M8.37832 100.54L0 100.541V108.919H8.37838L8.37832 100.54Z" fill="white"/>
<path d="M25.1352 100.54H16.7567L16.7568 108.919H25.1352V100.54Z" fill="white"/>
<path d="M41.8918 100.54H33.5134V108.919H41.8918V100.54Z" fill="white"/>
<path d="M58.6486 100.541L50.2703 100.54L50.2702 108.919H58.6486V100.541Z" fill="white"/>
<path d="M67.0269 100.541H58.6486V108.919H67.0269V100.541Z" fill="white"/>
<path d="M75.4054 100.54L67.0269 100.541V108.919H75.4054L75.4054 100.54Z" fill="white"/>
<path d="M108.919 100.54H100.54V108.919H108.919V100.54Z" fill="white"/>
<path d="M117.297 100.54H108.919V108.919H117.297V100.54Z" fill="white"/>
<path d="M125.676 100.54H117.297V108.919H125.676V100.54Z" fill="white"/>
<path d="M142.432 100.54H134.054L134.054 108.919H142.432V100.54Z" fill="white"/>
<path d="M159.189 100.541H150.811V108.919H159.189V100.541Z" fill="white"/>
<path d="M184.324 100.54H175.946V108.919H184.324V100.54Z" fill="white"/>
<path d="M226.216 100.54H217.838V108.919H226.216V100.54Z" fill="white"/>
<path d="M234.594 100.541L226.216 100.54V108.919H234.594V100.541Z" fill="white"/>
<path d="M242.973 100.54L234.594 100.541V108.919H242.973L242.973 100.54Z" fill="white"/>
<path d="M251.351 100.54H242.973L242.973 108.919H251.351V100.54Z" fill="white"/>
<path d="M259.73 100.541L251.351 100.54V108.919H259.73V100.541Z" fill="white"/>
<path d="M268.108 100.541H259.73V108.919H268.108V100.541Z" fill="white"/>
<path d="M310 100.541L301.622 100.54L301.622 108.919H310V100.541Z" fill="white"/>
<path d="M8.37838 108.919H0V117.297H8.37838V108.919Z" fill="white"/>
<path d="M16.7568 108.919H8.37838V117.297H16.7567L16.7568 108.919Z" fill="white"/>
<path d="M25.1352 108.919H16.7568L16.7567 117.297H25.1352V108.919Z" fill="white"/>
<path d="M67.0269 108.919H58.6486L58.6486 117.297H67.0269V108.919Z" fill="white"/>
<path d="M83.7837 108.919L75.4054 108.919L75.4054 117.297H83.7837V108.919Z" fill="white"/>
<path d="M100.54 108.919L92.1622 108.919V117.297H100.541L100.54 108.919Z" fill="white"/>
<path d="M134.054 108.919H125.676L125.676 117.297H134.054L134.054 108.919Z" fill="white"/>
<path d="M142.432 108.919H134.054L134.054 117.297H142.432V108.919Z" fill="white"/>
<path d="M150.811 108.919H142.432V117.297H150.811L150.811 108.919Z" fill="white"/>
<path d="M159.189 108.919H150.811L150.811 117.297H159.189V108.919Z" fill="white"/>
<path d="M226.216 108.919H217.838V117.297H226.216V108.919Z" fill="white"/>
<path d="M234.594 108.919H226.216V117.297H234.594V108.919Z" fill="white"/>
<path d="M242.973 108.919H234.594V117.297H242.973V108.919Z" fill="white"/>
<path d="M251.351 108.919H242.973V117.297H251.351V108.919Z" fill="white"/>
<path d="M259.73 108.919H251.351V117.297H259.73V108.919Z" fill="white"/>
<path d="M276.486 108.919L268.108 108.919L268.108 117.297H276.486V108.919Z" fill="white"/>
<path d="M284.865 108.919H276.486V117.297H284.865V108.919Z" fill="white"/>
<path d="M16.7567 117.297H8.37838L8.37832 125.676H16.7567V117.297Z" fill="white"/>
<path d="M50.2703 117.297H41.8919V125.676H50.2703V117.297Z" fill="white"/>
<path d="M58.6486 117.297L50.2703 117.297V125.676H58.6486L58.6486 117.297Z" fill="white"/>
<path d="M83.7837 117.297H75.4054V125.676H83.7837V117.297Z" fill="white"/>
<path d="M92.1622 117.297H83.7837V125.676H92.1622L92.1622 117.297Z" fill="white"/>
<path d="M100.541 117.297H92.1622L92.1622 125.676H100.541V117.297Z" fill="white"/>
<path d="M142.432 117.297H134.054L134.054 125.676H142.432V117.297Z" fill="white"/>
<path d="M167.568 117.297L159.189 117.297L159.189 125.676H167.568V117.297Z" fill="white"/>
<path d="M184.324 117.297H175.946V125.676H184.324V117.297Z" fill="white"/>
<path d="M192.703 117.297H184.324V125.676H192.703V117.297Z" fill="white"/>
<path d="M201.081 117.297H192.703V125.676H201.081V117.297Z" fill="white"/>
<path d="M217.838 117.297L209.459 117.297V125.676H217.838L217.838 117.297Z" fill="white"/>
<path d="M226.216 117.297H217.838L217.838 125.676H226.216V117.297Z" fill="white"/>
<path d="M234.594 117.297H226.216V125.676H234.594V117.297Z" fill="white"/>
<path d="M259.73 117.297H251.351L251.351 125.676H259.73V117.297Z" fill="white"/>
<path d="M268.108 117.297H259.73V125.676H268.108L268.108 117.297Z" fill="white"/>
<path d="M276.486 117.297H268.108L268.108 125.676H276.486V117.297Z" fill="white"/>
<path d="M284.865 117.297H276.486V125.676H284.865V117.297Z" fill="white"/>
<path d="M293.243 117.297L284.865 117.297V125.676H293.243V117.297Z" fill="white"/>
<path d="M301.622 117.297H293.243V125.676H301.622V117.297Z" fill="white"/>
<path d="M310 117.297H301.622V125.676H310V117.297Z" fill="white"/>
<path d="M16.7567 125.676H8.37832V134.054H16.7567V125.676Z" fill="white"/>
<path d="M33.5135 125.676H25.1351V134.054H33.5135V125.676Z" fill="white"/>
<path d="M41.8919 125.676L33.5135 125.676V134.054H41.8918L41.8919 125.676Z" fill="white"/>
<path d="M50.2703 125.676H41.8919L41.8918 134.054H50.2703V125.676Z" fill="white"/>
<path d="M75.4054 125.676L67.027 125.676V134.054H75.4054L75.4054 125.676Z" fill="white"/>
<path d="M117.297 125.676H108.919V134.054H117.297V125.676Z" fill="white"/>
<path d="M125.676 125.676H117.297V134.054H125.676V125.676Z" fill="white"/>
<path d="M134.054 125.676L125.676 125.676V134.054H134.054L134.054 125.676Z" fill="white"/>
<path d="M142.432 125.676H134.054L134.054 134.054H142.432V125.676Z" fill="white"/>
<path d="M167.568 125.676H159.189V134.054H167.568V125.676Z" fill="white"/>
<path d="M201.081 125.676H192.703L192.703 134.054H201.081V125.676Z" fill="white"/>
<path d="M209.459 125.676H201.081V134.054H209.459L209.459 125.676Z" fill="white"/>
<path d="M234.594 125.676H226.216L226.216 134.054H234.594V125.676Z" fill="white"/>
<path d="M242.973 125.676L234.594 125.676V134.054H242.973V125.676Z" fill="white"/>
<path d="M251.351 125.676L242.973 125.676V134.054H251.351L251.351 125.676Z" fill="white"/>
<path d="M284.865 125.676H276.486L276.487 134.054H284.865V125.676Z" fill="white"/>
<path d="M293.243 125.676H284.865V134.054H293.243V125.676Z" fill="white"/>
<path d="M301.622 125.676H293.243V134.054H301.622V125.676Z" fill="white"/>
<path d="M8.37832 134.054L0 134.054V142.432H8.37838L8.37832 134.054Z" fill="white"/>
<path d="M25.1351 134.054H16.7567L16.7568 142.432H25.1352L25.1351 134.054Z" fill="white"/>
<path d="M33.5135 134.054H25.1351L25.1352 142.432H33.5135V134.054Z" fill="white"/>
<path d="M41.8918 134.054H33.5135V142.432H41.8918V134.054Z" fill="white"/>
<path d="M58.6486 134.054L50.2703 134.054L50.2702 142.432H58.6486V134.054Z" fill="white"/>
<path d="M67.027 134.054L58.6486 134.054V142.432H67.0269L67.027 134.054Z" fill="white"/>
<path d="M75.4054 134.054H67.027L67.0269 142.432H75.4054V134.054Z" fill="white"/>
<path d="M92.1622 134.054H83.7838V142.432H92.1622V134.054Z" fill="white"/>
<path d="M108.919 134.054L100.54 134.054V142.432H108.919L108.919 134.054Z" fill="white"/>
<path d="M134.054 134.054H125.676L125.676 142.432H134.054V134.054Z" fill="white"/>
<path d="M159.189 134.054L150.811 134.054V142.432H159.189L159.189 134.054Z" fill="white"/>
<path d="M192.703 134.054L184.324 134.054V142.432H192.703L192.703 134.054Z" fill="white"/>
<path d="M217.838 134.054L209.459 134.054L209.459 142.432H217.838V134.054Z" fill="white"/>
<path d="M234.594 134.054H226.216V142.432H234.594V134.054Z" fill="white"/>
<path d="M242.973 134.054H234.594V142.432H242.973V134.054Z" fill="white"/>
<path d="M251.351 134.054H242.973V142.432H251.351V134.054Z" fill="white"/>
<path d="M259.73 134.054L251.351 134.054V142.432H259.73V134.054Z" fill="white"/>
<path d="M268.108 134.054H259.73V142.432H268.108V134.054Z" fill="white"/>
<path d="M276.487 134.054L268.108 134.054V142.432H276.486L276.487 134.054Z" fill="white"/>
<path d="M284.865 134.054H276.487L276.486 142.432H284.865V134.054Z" fill="white"/>
<path d="M293.243 134.054H284.865V142.432H293.243V134.054Z" fill="white"/>
<path d="M310 134.054L301.622 134.054L301.622 142.432H310V134.054Z" fill="white"/>
<path d="M16.7568 142.432H8.37838L8.37832 150.811H16.7567L16.7568 142.432Z" fill="white"/>
<path d="M50.2702 142.432H41.8918L41.8919 150.811H50.2703L50.2702 142.432Z" fill="white"/>
<path d="M75.4054 142.432H67.0269L67.027 150.811H75.4054V142.432Z" fill="white"/>
<path d="M83.7838 142.432H75.4054V150.811H83.7837L83.7838 142.432Z" fill="white"/>
<path d="M125.676 142.432L117.297 142.432V150.811H125.676L125.676 142.432Z" fill="white"/>
<path d="M142.432 142.432L134.054 142.432L134.054 150.811H142.432V142.432Z" fill="white"/>
<path d="M175.946 142.432H167.568V150.811H175.946V142.432Z" fill="white"/>
<path d="M234.594 142.432H226.216V150.811H234.594V142.432Z" fill="white"/>
<path d="M242.973 142.432H234.594V150.811H242.973V142.432Z" fill="white"/>
<path d="M268.108 142.432H259.73L259.73 150.811H268.108V142.432Z" fill="white"/>
<path d="M310 142.432H301.622V150.811H310V142.432Z" fill="white"/>
<path d="M25.1352 150.811L16.7567 150.811L16.7568 159.189H25.1352V150.811Z" fill="white"/>
<path d="M33.5135 150.811H25.1352V159.189H33.5135V150.811Z" fill="white"/>
<path d="M41.8919 150.811L33.5135 150.811V159.189H41.8918L41.8919 150.811Z" fill="white"/>
<path d="M58.6486 150.811L50.2703 150.811L50.2702 159.189H58.6486V150.811Z" fill="white"/>
<path d="M67.027 150.811L58.6486 150.811V159.189H67.0269L67.027 150.811Z" fill="white"/>
<path d="M83.7837 150.811H75.4054L75.4054 159.189H83.7837V150.811Z" fill="white"/>
<path d="M92.1622 150.811L83.7837 150.811V159.189H92.1622V150.811Z" fill="white"/>
<path d="M108.919 150.811H100.54V159.189H108.919V150.811Z" fill="white"/>
<path d="M125.676 150.811H117.297V159.189H125.676V150.811Z" fill="white"/>
<path d="M150.811 150.811L142.432 150.811L142.432 159.189H150.811V150.811Z" fill="white"/>
<path d="M201.081 150.811H192.703V159.189H201.081V150.811Z" fill="white"/>
<path d="M209.459 150.811H201.081V159.189H209.459V150.811Z" fill="white"/>
<path d="M226.216 150.811L217.838 150.811V159.189H226.216L226.216 150.811Z" fill="white"/>
<path d="M234.594 150.811H226.216L226.216 159.189H234.594V150.811Z" fill="white"/>
<path d="M259.73 150.811L251.351 150.811V159.189H259.73L259.73 150.811Z" fill="white"/>
<path d="M268.108 150.811H259.73L259.73 159.189H268.108V150.811Z" fill="white"/>
<path d="M276.486 150.811L268.108 150.811V159.189H276.486V150.811Z" fill="white"/>
<path d="M284.865 150.811H276.486V159.189H284.865V150.811Z" fill="white"/>
<path d="M293.243 150.811H284.865V159.189H293.243V150.811Z" fill="white"/>
<path d="M301.622 150.811L293.243 150.811V159.189H301.622L301.622 150.811Z" fill="white"/>
<path d="M310 150.811H301.622L301.622 159.189H310V150.811Z" fill="white"/>
<path d="M8.37838 159.189H0V167.568H8.37838V159.189Z" fill="white"/>
<path d="M25.1352 159.189H16.7568V167.568H25.1352V159.189Z" fill="white"/>
<path d="M33.5135 159.189H25.1352V167.568H33.5135V159.189Z" fill="white"/>
<path d="M50.2702 159.189H41.8918L41.8919 167.568H50.2703L50.2702 159.189Z" fill="white"/>
<path d="M83.7837 159.189H75.4054V167.568H83.7837V159.189Z" fill="white"/>
<path d="M117.297 159.189H108.919L108.919 167.568H117.297L117.297 159.189Z" fill="white"/>
<path d="M142.432 159.189L134.054 159.189V167.568H142.432L142.432 159.189Z" fill="white"/>
<path d="M150.811 159.189H142.432L142.432 167.568H150.811V159.189Z" fill="white"/>
<path d="M167.568 159.189H159.189V167.568H167.568V159.189Z" fill="white"/>
<path d="M175.946 159.189H167.568V167.568H175.946V159.189Z" fill="white"/>
<path d="M184.324 159.189H175.946V167.568H184.324V159.189Z" fill="white"/>
<path d="M192.703 159.189L184.324 159.189V167.568H192.703L192.703 159.189Z" fill="white"/>
<path d="M201.081 159.189H192.703L192.703 167.568H201.081V159.189Z" fill="white"/>
<path d="M234.594 159.189H226.216L226.216 167.568H234.594V159.189Z" fill="white"/>
<path d="M242.973 159.189L234.594 159.189V167.568H242.973V159.189Z" fill="white"/>
<path d="M251.351 159.189L242.973 159.189V167.568H251.351L251.351 159.189Z" fill="white"/>
<path d="M16.7568 167.568H8.37838L8.37832 175.946H16.7567L16.7568 167.568Z" fill="white"/>
<path d="M25.1352 167.568H16.7568L16.7567 175.946H25.1352V167.568Z" fill="white"/>
<path d="M33.5135 167.568H25.1352V175.946H33.5135V167.568Z" fill="white"/>
<path d="M50.2703 167.568H41.8919V175.946H50.2703V167.568Z" fill="white"/>
<path d="M58.6486 167.568L50.2703 167.568V175.946H58.6486V167.568Z" fill="white"/>
<path d="M92.1622 167.568L83.7837 167.568L83.7838 175.946H92.1622V167.568Z" fill="white"/>
<path d="M100.541 167.568H92.1622V175.946H100.541V167.568Z" fill="white"/>
<path d="M108.919 167.568L100.541 167.568V175.946H108.919L108.919 167.568Z" fill="white"/>
<path d="M125.676 167.568L117.297 167.568L117.297 175.946H125.676V167.568Z" fill="white"/>
<path d="M134.054 167.568L125.676 167.568V175.946H134.054L134.054 167.568Z" fill="white"/>
<path d="M142.432 167.568H134.054L134.054 175.946H142.432V167.568Z" fill="white"/>
<path d="M167.568 167.568H159.189V175.946H167.568V167.568Z" fill="white"/>
<path d="M175.946 167.568H167.568V175.946H175.946V167.568Z" fill="white"/>
<path d="M201.081 167.568H192.703L192.703 175.946H201.081V167.568Z" fill="white"/>
<path d="M209.459 167.568L201.081 167.568V175.946H209.459V167.568Z" fill="white"/>
<path d="M226.216 167.568L217.838 167.568V175.946H226.216L226.216 167.568Z" fill="white"/>
<path d="M234.594 167.568H226.216L226.216 175.946H234.594V167.568Z" fill="white"/>
<path d="M259.73 167.568L251.351 167.568L251.351 175.946H259.73V167.568Z" fill="white"/>
<path d="M284.865 167.568H276.487V175.946H284.865V167.568Z" fill="white"/>
<path d="M293.243 167.568H284.865V175.946H293.243V167.568Z" fill="white"/>
<path d="M8.37832 175.946L0 175.946V184.325H8.37838L8.37832 175.946Z" fill="white"/>
<path d="M25.1352 175.946H16.7567L16.7568 184.325H25.1352V175.946Z" fill="white"/>
<path d="M50.2703 175.946H41.8919V184.325H50.2703V175.946Z" fill="white"/>
<path d="M67.0269 175.946L58.6486 175.946L58.6486 184.325H67.0269V175.946Z" fill="white"/>
<path d="M75.4054 175.946H67.0269V184.325H75.4054V175.946Z" fill="white"/>
<path d="M83.7838 175.946L75.4054 175.946V184.325H83.7837L83.7838 175.946Z" fill="white"/>
<path d="M100.541 175.946H92.1622L92.1622 184.325H100.541V175.946Z" fill="white"/>
<path d="M108.919 175.946H100.541V184.325H108.919V175.946Z" fill="white"/>
<path d="M117.297 175.946H108.919V184.325H117.297L117.297 175.946Z" fill="white"/>
<path d="M142.432 175.946H134.054L134.054 184.325H142.432V175.946Z" fill="white"/>
<path d="M150.811 175.946L142.432 175.946V184.325H150.811V175.946Z" fill="white"/>
<path d="M175.946 175.946H167.568L167.568 184.325H175.946V175.946Z" fill="white"/>
<path d="M234.594 175.946H226.216L226.216 184.325H234.594V175.946Z" fill="white"/>
<path d="M276.487 175.946L268.108 175.946V184.325H276.486L276.487 175.946Z" fill="white"/>
<path d="M310 175.946H301.622V184.325H310V175.946Z" fill="white"/>
<path d="M8.37838 184.325H0V192.702H8.37838V184.325Z" fill="white"/>
<path d="M16.7568 184.325H8.37838V192.702H16.7567L16.7568 184.325Z" fill="white"/>
<path d="M25.1352 184.325H16.7568L16.7567 192.702H25.1352V184.325Z" fill="white"/>
<path d="M33.5135 184.324L25.1352 184.325V192.702H33.5135V184.324Z" fill="white"/>
<path d="M58.6486 184.325H50.2703L50.2702 192.702H58.6486L58.6486 184.325Z" fill="white"/>
<path d="M75.4054 184.325H67.0269L67.027 192.702H75.4054V184.325Z" fill="white"/>
<path d="M83.7837 184.325H75.4054V192.702H83.7837V184.325Z" fill="white"/>
<path d="M100.541 184.325H92.1622V192.702H100.541V184.325Z" fill="white"/>
<path d="M142.432 184.325H134.054V192.702H142.432V184.325Z" fill="white"/>
<path d="M150.811 184.325H142.432V192.702H150.811V184.325Z" fill="white"/>
<path d="M175.946 184.325H167.568V192.702H175.946V184.325Z" fill="white"/>
<path d="M192.703 184.324H184.324V192.702H192.703V184.324Z" fill="white"/>
<path d="M201.081 184.324H192.703V192.702H201.081V184.324Z" fill="white"/>
<path d="M209.459 184.324H201.081V192.702H209.459V184.324Z" fill="white"/>
<path d="M217.838 184.324H209.459V192.702H217.838V184.324Z" fill="white"/>
<path d="M226.216 184.325L217.838 184.324V192.702H226.216L226.216 184.325Z" fill="white"/>
<path d="M234.594 184.325H226.216L226.216 192.702H234.594V184.325Z" fill="white"/>
<path d="M242.973 184.324L234.594 184.325V192.702H242.973V184.324Z" fill="white"/>
<path d="M251.351 184.324H242.973V192.702H251.351V184.324Z" fill="white"/>
<path d="M259.73 184.324H251.351V192.702H259.73V184.324Z" fill="white"/>
<path d="M268.108 184.325L259.73 184.324V192.702H268.108L268.108 184.325Z" fill="white"/>
<path d="M276.486 184.325H268.108L268.108 192.702H276.486V184.325Z" fill="white"/>
<path d="M284.865 184.324L276.486 184.325V192.702H284.865V184.324Z" fill="white"/>
<path d="M301.622 184.325L293.243 184.324V192.702H301.622L301.622 184.325Z" fill="white"/>
<path d="M310 184.325H301.622L301.622 192.702H310V184.325Z" fill="white"/>
<path d="M8.37838 192.702H0V201.081H8.37838V192.702Z" fill="white"/>
<path d="M16.7567 192.702H8.37838V201.081H16.7567V192.702Z" fill="white"/>
<path d="M33.5135 192.702H25.1352L25.1351 201.081H33.5135V192.702Z" fill="white"/>
<path d="M41.8918 192.703L33.5135 192.702V201.081H41.8918V192.703Z" fill="white"/>
<path d="M50.2702 192.702L41.8918 192.703V201.081H50.2703L50.2702 192.702Z" fill="white"/>
<path d="M67.027 192.702H58.6486L58.6486 201.081H67.0269L67.027 192.702Z" fill="white"/>
<path d="M75.4054 192.702H67.027L67.0269 201.081H75.4054V192.702Z" fill="white"/>
<path d="M83.7837 192.702H75.4054V201.081H83.7837V192.702Z" fill="white"/>
<path d="M108.919 192.703L100.541 192.702L100.54 201.081H108.919V192.703Z" fill="white"/>
<path d="M117.297 192.703H108.919V201.081H117.297V192.703Z" fill="white"/>
<path d="M125.676 192.703H117.297V201.081H125.676V192.703Z" fill="white"/>
<path d="M134.054 192.702L125.676 192.703V201.081H134.054L134.054 192.702Z" fill="white"/>
<path d="M150.811 192.702H142.432L142.432 201.081H150.811V192.702Z" fill="white"/>
<path d="M159.189 192.703L150.811 192.702V201.081H159.189V192.703Z" fill="white"/>
<path d="M167.568 192.702L159.189 192.703V201.081H167.568L167.568 192.702Z" fill="white"/>
<path d="M175.946 192.702H167.568L167.568 201.081H175.946V192.702Z" fill="white"/>
<path d="M201.081 192.702H192.703L192.703 201.081H201.081V192.702Z" fill="white"/>
<path d="M209.459 192.702H201.081V201.081H209.459V192.702Z" fill="white"/>
<path d="M268.108 192.702H259.73L259.73 201.081H268.108V192.702Z" fill="white"/>
<path d="M284.865 192.702H276.486L276.487 201.081H284.865V192.702Z" fill="white"/>
<path d="M301.622 192.702H293.243V201.081H301.622V192.702Z" fill="white"/>
<path d="M41.8918 201.081H33.5135L33.5134 209.459H41.8918V201.081Z" fill="white"/>
<path d="M50.2703 201.081H41.8918V209.459H50.2703V201.081Z" fill="white"/>
<path d="M58.6486 201.081H50.2703V209.459H58.6486L58.6486 201.081Z" fill="white"/>
<path d="M67.0269 201.081H58.6486L58.6486 209.459H67.0269V201.081Z" fill="white"/>
<path d="M100.54 201.081L92.1622 201.081V209.459H100.541L100.54 201.081Z" fill="white"/>
<path d="M117.297 201.081H108.919L108.919 209.459H117.297V201.081Z" fill="white"/>
<path d="M125.676 201.081H117.297V209.459H125.676V201.081Z" fill="white"/>
<path d="M134.054 201.081H125.676V209.459H134.054V201.081Z" fill="white"/>
<path d="M142.432 201.081H134.054V209.459H142.432L142.432 201.081Z" fill="white"/>
<path d="M167.568 201.081H159.189L159.189 209.459H167.568V201.081Z" fill="white"/>
<path d="M201.081 201.081H192.703V209.459H201.081V201.081Z" fill="white"/>
<path d="M209.459 201.081H201.081V209.459H209.459V201.081Z" fill="white"/>
<path d="M226.216 201.081H217.838V209.459H226.216V201.081Z" fill="white"/>
<path d="M234.594 201.081H226.216V209.459H234.594V201.081Z" fill="white"/>
<path d="M251.351 201.081H242.973V209.459H251.351V201.081Z" fill="white"/>
<path d="M259.73 201.081L251.351 201.081V209.459H259.73L259.73 201.081Z" fill="white"/>
<path d="M293.243 201.081H284.865L284.865 209.459H293.243L293.243 201.081Z" fill="white"/>
<path d="M310 201.081L301.622 201.081L301.622 209.459H310V201.081Z" fill="white"/>
<path d="M8.37838 209.46H0V217.838H8.37838V209.46Z" fill="white"/>
<path d="M16.7567 209.46H8.37838V217.838H16.7567V209.46Z" fill="white"/>
<path d="M25.1352 209.46H16.7567V217.838H25.1352V209.46Z" fill="white"/>
<path d="M50.2703 209.459H41.8918L41.8919 217.838H50.2703V209.459Z" fill="white"/>
<path d="M83.7837 209.46H75.4054V217.838H83.7837V209.46Z" fill="white"/>
<path d="M92.1622 209.459L83.7837 209.46V217.838H92.1622L92.1622 209.459Z" fill="white"/>
<path d="M100.541 209.459H92.1622L92.1622 217.838H100.541V209.459Z" fill="white"/>
<path d="M108.919 209.459H100.541V217.838H108.919L108.919 209.459Z" fill="white"/>
<path d="M142.432 209.459H134.054L134.054 217.838H142.432V209.459Z" fill="white"/>
<path d="M167.568 209.459H159.189V217.838H167.568V209.459Z" fill="white"/>
<path d="M175.946 209.46L167.568 209.459V217.838H175.946V209.46Z" fill="white"/>
<path d="M184.324 209.46H175.946V217.838H184.324V209.46Z" fill="white"/>
<path d="M192.703 209.459L184.324 209.46V217.838H192.703L192.703 209.459Z" fill="white"/>
<path d="M209.459 209.459H201.081L201.081 217.838H209.459V209.459Z" fill="white"/>
<path d="M234.594 209.459H226.216L226.216 217.838H234.594V209.459Z" fill="white"/>
<path d="M242.973 209.459H234.594V217.838H242.973L242.973 209.459Z" fill="white"/>
<path d="M276.486 209.46H268.108V217.838H276.486V209.46Z" fill="white"/>
<path d="M301.622 209.459H293.243L293.243 217.838H301.622L301.622 209.459Z" fill="white"/>
<path d="M310 209.459H301.622L301.622 217.838H310V209.459Z" fill="white"/>
<path d="M8.37838 217.838H0V226.216H8.37838V217.838Z" fill="white"/>
<path d="M50.2703 217.838H41.8919V226.216H50.2703V217.838Z" fill="white"/>
<path d="M58.6486 217.838L50.2703 217.838V226.216H58.6486V217.838Z" fill="white"/>
<path d="M92.1622 217.838H83.7837L83.7838 226.216H92.1622V217.838Z" fill="white"/>
<path d="M108.919 217.838H100.541L100.54 226.216H108.919V217.838Z" fill="white"/>
<path d="M117.297 217.838L108.919 217.838V226.216H117.297V217.838Z" fill="white"/>
<path d="M134.054 217.838L125.676 217.838V226.216H134.054L134.054 217.838Z" fill="white"/>
<path d="M159.189 217.838L150.811 217.838V226.216H159.189L159.189 217.838Z" fill="white"/>
<path d="M184.324 217.838H175.946L175.946 226.216H184.324V217.838Z" fill="white"/>
<path d="M209.459 217.838H201.081V226.216H209.459V217.838Z" fill="white"/>
<path d="M226.216 217.838L217.838 217.838V226.216H226.216L226.216 217.838Z" fill="white"/>
<path d="M234.594 217.838H226.216L226.216 226.216H234.594V217.838Z" fill="white"/>
<path d="M259.73 217.838H251.351V226.216H259.73V217.838Z" fill="white"/>
<path d="M268.108 217.838L259.73 217.838V226.216H268.108L268.108 217.838Z" fill="white"/>
<path d="M276.486 217.838H268.108L268.108 226.216H276.486V217.838Z" fill="white"/>
<path d="M284.865 217.838L276.486 217.838V226.216H284.865V217.838Z" fill="white"/>
<path d="M310 217.838H301.622L301.622 226.216H310V217.838Z" fill="white"/>
<path d="M8.37838 226.216H0V234.595H8.37838V226.216Z" fill="white"/>
<path d="M25.1352 226.217H16.7568V234.595H25.1352V226.217Z" fill="white"/>
<path d="M33.5135 226.217H25.1352V234.595H33.5135V226.217Z" fill="white"/>
<path d="M50.2703 226.216H41.8919V234.595H50.2703V226.216Z" fill="white"/>
<path d="M67.0269 226.217L58.6486 226.216L58.6486 234.595H67.0269V226.217Z" fill="white"/>
<path d="M83.7838 226.216L75.4054 226.217V234.595H83.7837L83.7838 226.216Z" fill="white"/>
<path d="M92.1622 226.216H83.7838L83.7837 234.595H92.1622V226.216Z" fill="white"/>
<path d="M100.54 226.216H92.1622V234.595H100.541L100.54 226.216Z" fill="white"/>
<path d="M108.919 226.216H100.54L100.541 234.595H108.919V226.216Z" fill="white"/>
<path d="M117.297 226.216H108.919V234.595H117.297V226.216Z" fill="white"/>
<path d="M125.676 226.216H117.297V234.595H125.676L125.676 226.216Z" fill="white"/>
<path d="M159.189 226.216H150.811V234.595H159.189V226.216Z" fill="white"/>
<path d="M184.324 226.216H175.946V234.595H184.324V226.216Z" fill="white"/>
<path d="M192.703 226.217L184.324 226.216V234.595H192.703V226.217Z" fill="white"/>
<path d="M209.459 226.216H201.081V234.595H209.459V226.216Z" fill="white"/>
<path d="M234.594 226.216H226.216L226.216 234.595H234.594V226.216Z" fill="white"/>
<path d="M242.973 226.217L234.594 226.216V234.595H242.973V226.217Z" fill="white"/>
<path d="M251.351 226.216L242.973 226.217V234.595H251.351L251.351 226.216Z" fill="white"/>
<path d="M284.865 226.216H276.486L276.487 234.595H284.865V226.216Z" fill="white"/>
<path d="M301.622 226.216L293.243 226.217V234.595H301.622L301.622 226.216Z" fill="white"/>
<path d="M8.37838 234.595H0V242.973H8.37838V234.595Z" fill="white"/>
<path d="M25.1352 234.595H16.7568V242.973H25.1352V234.595Z" fill="white"/>
<path d="M50.2703 234.595H41.8919V242.973H50.2703V234.595Z" fill="white"/>
<path d="M58.6486 234.595H50.2703V242.973H58.6486L58.6486 234.595Z" fill="white"/>
<path d="M67.0269 234.595H58.6486L58.6486 242.973H67.0269V234.595Z" fill="white"/>
<path d="M75.4054 234.595H67.0269V242.973H75.4054L75.4054 234.595Z" fill="white"/>
<path d="M83.7837 234.595H75.4054L75.4054 242.973H83.7837V234.595Z" fill="white"/>
<path d="M92.1622 234.595H83.7837V242.973H92.1622V234.595Z" fill="white"/>
<path d="M100.541 234.595H92.1622V242.973H100.541V234.595Z" fill="white"/>
<path d="M117.297 234.595H108.919L108.919 242.973H117.297V234.595Z" fill="white"/>
<path d="M134.054 234.594L125.676 234.595L125.676 242.973H134.054V234.594Z" fill="white"/>
<path d="M150.811 234.595L142.432 234.594V242.973H150.811L150.811 234.595Z" fill="white"/>
<path d="M167.568 234.594L159.189 234.595L159.189 242.973H167.568V234.594Z" fill="white"/>
<path d="M175.946 234.595L167.568 234.594V242.973H175.946L175.946 234.595Z" fill="white"/>
<path d="M192.703 234.595H184.324L184.324 242.973H192.703V234.595Z" fill="white"/>
<path d="M226.216 234.595L217.838 234.594V242.973H226.216L226.216 234.595Z" fill="white"/>
<path d="M234.594 234.595H226.216L226.216 242.973H234.594V234.595Z" fill="white"/>
<path d="M242.973 234.595H234.594V242.973H242.973V234.595Z" fill="white"/>
<path d="M251.351 234.595H242.973V242.973H251.351V234.595Z" fill="white"/>
<path d="M259.73 234.594L251.351 234.595V242.973H259.73V234.594Z" fill="white"/>
<path d="M268.108 234.594H259.73V242.973H268.108V234.594Z" fill="white"/>
<path d="M276.487 234.595L268.108 234.594V242.973H276.486L276.487 234.595Z" fill="white"/>
<path d="M284.865 234.595H276.487L276.486 242.973H284.865V234.595Z" fill="white"/>
<path d="M293.243 234.595H284.865V242.973H293.243L293.243 234.595Z" fill="white"/>
<path d="M310 234.594L301.622 234.595L301.622 242.973H310V234.594Z" fill="white"/>
<path d="M75.4054 242.973H67.0269L67.027 251.351H75.4054V242.973Z" fill="white"/>
<path d="M92.1622 242.973H83.7837L83.7838 251.351H92.1622V242.973Z" fill="white"/>
<path d="M100.541 242.973H92.1622V251.351H100.541V242.973Z" fill="white"/>
<path d="M108.919 242.973H100.541V251.351H108.919L108.919 242.973Z" fill="white"/>
<path d="M117.297 242.973H108.919L108.919 251.351H117.297V242.973Z" fill="white"/>
<path d="M125.676 242.973H117.297V251.351H125.676L125.676 242.973Z" fill="white"/>
<path d="M142.432 242.973H134.054L134.054 251.351H142.432L142.432 242.973Z" fill="white"/>
<path d="M159.189 242.973H150.811L150.811 251.351H159.189L159.189 242.973Z" fill="white"/>
<path d="M184.324 242.973H175.946L175.946 251.351H184.324L184.324 242.973Z" fill="white"/>
<path d="M234.594 242.973H226.216L226.216 251.351H234.594V242.973Z" fill="white"/>
<path d="M242.973 242.973H234.594V251.351H242.973V242.973Z" fill="white"/>
<path d="M276.486 242.973H268.108L268.108 251.351H276.486V242.973Z" fill="white"/>
<path d="M284.865 242.973H276.486V251.351H284.865V242.973Z" fill="white"/>
<path d="M8.37838 251.351H0V259.73H8.37838V251.351Z" fill="white"/>
<path d="M16.7567 251.351H8.37838V259.73H16.7567V251.351Z" fill="white"/>
<path d="M25.1352 251.351H16.7567V259.73H25.1352V251.351Z" fill="white"/>
<path d="M33.5135 251.351H25.1352V259.73H33.5135V251.351Z" fill="white"/>
<path d="M41.8918 251.351H33.5135V259.73H41.8918V251.351Z" fill="white"/>
<path d="M50.2703 251.351H41.8918V259.73H50.2703V251.351Z" fill="white"/>
<path d="M58.6486 251.351H50.2703V259.73H58.6486V251.351Z" fill="white"/>
<path d="M83.7838 251.351H75.4054L75.4054 259.73H83.7837L83.7838 251.351Z" fill="white"/>
<path d="M92.1622 251.351H83.7838L83.7837 259.73H92.1622V251.351Z" fill="white"/>
<path d="M100.541 251.351H92.1622V259.73H100.541V251.351Z" fill="white"/>
<path d="M117.297 251.351H108.919L108.919 259.73H117.297V251.351Z" fill="white"/>
<path d="M134.054 251.351H125.676L125.676 259.73H134.054L134.054 251.351Z" fill="white"/>
<path d="M142.432 251.351H134.054L134.054 259.73H142.432V251.351Z" fill="white"/>
<path d="M150.811 251.351H142.432V259.73H150.811L150.811 251.351Z" fill="white"/>
<path d="M159.189 251.351H150.811L150.811 259.73H159.189V251.351Z" fill="white"/>
<path d="M167.568 251.351L159.189 251.351V259.73H167.568V251.351Z" fill="white"/>
<path d="M184.324 251.351H175.946V259.73H184.324V251.351Z" fill="white"/>
<path d="M192.703 251.351L184.324 251.351V259.73H192.703V251.351Z" fill="white"/>
<path d="M217.838 251.351H209.459V259.73H217.838V251.351Z" fill="white"/>
<path d="M234.594 251.351H226.216V259.73H234.594V251.351Z" fill="white"/>
<path d="M242.973 251.351H234.594V259.73H242.973V251.351Z" fill="white"/>
<path d="M259.73 251.351H251.351V259.73H259.73V251.351Z" fill="white"/>
<path d="M276.486 251.351H268.108V259.73H276.486V251.351Z" fill="white"/>
<path d="M293.243 251.351L284.865 251.351L284.865 259.73H293.243V251.351Z" fill="white"/>
<path d="M310 251.351H301.622V259.73H310V251.351Z" fill="white"/>
<path d="M8.37838 259.73H0V268.108H8.37838V259.73Z" fill="white"/>
<path d="M58.6486 259.73H50.2703L50.2702 268.108H58.6486V259.73Z" fill="white"/>
<path d="M100.541 259.73H92.1622L92.1622 268.108H100.541V259.73Z" fill="white"/>
<path d="M108.919 259.73H100.541V268.108H108.919L108.919 259.73Z" fill="white"/>
<path d="M117.297 259.73H108.919L108.919 268.108H117.297V259.73Z" fill="white"/>
<path d="M134.054 259.73H125.676V268.108H134.054V259.73Z" fill="white"/>
<path d="M142.432 259.73H134.054V268.108H142.432V259.73Z" fill="white"/>
<path d="M150.811 259.73H142.432V268.108H150.811V259.73Z" fill="white"/>
<path d="M159.189 259.73H150.811V268.108H159.189V259.73Z" fill="white"/>
<path d="M167.568 259.73H159.189V268.108H167.568V259.73Z" fill="white"/>
<path d="M175.946 259.73H167.568V268.108H175.946L175.946 259.73Z" fill="white"/>
<path d="M184.324 259.73H175.946L175.946 268.108H184.324V259.73Z" fill="white"/>
<path d="M192.703 259.73H184.324V268.108H192.703V259.73Z" fill="white"/>
<path d="M201.081 259.73L192.703 259.73V268.108H201.081V259.73Z" fill="white"/>
<path d="M209.459 259.73L201.081 259.73V268.108H209.459L209.459 259.73Z" fill="white"/>
<path d="M226.216 259.73H217.838L217.838 268.108H226.216L226.216 259.73Z" fill="white"/>
<path d="M242.973 259.73H234.594L234.595 268.108H242.973V259.73Z" fill="white"/>
<path d="M276.486 259.73H268.108V268.108H276.486V259.73Z" fill="white"/>
<path d="M284.865 259.73H276.486V268.108H284.865L284.865 259.73Z" fill="white"/>
<path d="M301.622 259.73H293.243L293.243 268.108H301.622L301.622 259.73Z" fill="white"/>
<path d="M8.37838 268.108H0V276.487H8.37838V268.108Z" fill="white"/>
<path d="M25.1352 268.108H16.7568V276.487H25.1352V268.108Z" fill="white"/>
<path d="M33.5135 268.108H25.1352V276.487H33.5135V268.108Z" fill="white"/>
<path d="M41.8918 268.108H33.5135V276.487H41.8918V268.108Z" fill="white"/>
<path d="M58.6486 268.108H50.2702V276.487H58.6486V268.108Z" fill="white"/>
<path d="M75.4054 268.108H67.027V276.487H75.4054V268.108Z" fill="white"/>
<path d="M83.7837 268.108H75.4054V276.487H83.7837V268.108Z" fill="white"/>
<path d="M92.1622 268.108L83.7837 268.108V276.487H92.1622L92.1622 268.108Z" fill="white"/>
<path d="M134.054 268.108H125.676V276.487H134.054V268.108Z" fill="white"/>
<path d="M142.432 268.108H134.054V276.487H142.432V268.108Z" fill="white"/>
<path d="M150.811 268.108H142.432V276.487H150.811V268.108Z" fill="white"/>
<path d="M167.568 268.108H159.189L159.189 276.487H167.568V268.108Z" fill="white"/>
<path d="M209.459 268.108H201.081L201.081 276.487H209.459V268.108Z" fill="white"/>
<path d="M217.838 268.108H209.459V276.487H217.838L217.838 268.108Z" fill="white"/>
<path d="M226.216 268.108H217.838L217.838 276.487H226.216V268.108Z" fill="white"/>
<path d="M234.595 268.108H226.216V276.487H234.594L234.595 268.108Z" fill="white"/>
<path d="M242.973 268.108H234.595L234.594 276.487H242.973V268.108Z" fill="white"/>
<path d="M251.351 268.108L242.973 268.108V276.487H251.351V268.108Z" fill="white"/>
<path d="M259.73 268.108H251.351V276.487H259.73V268.108Z" fill="white"/>
<path d="M268.108 268.108L259.73 268.108V276.487H268.108L268.108 268.108Z" fill="white"/>
<path d="M276.486 268.108H268.108L268.108 276.487H276.486V268.108Z" fill="white"/>
<path d="M284.865 268.108H276.486V276.487H284.865V268.108Z" fill="white"/>
<path d="M310 268.108L301.622 268.108L301.622 276.487H310V268.108Z" fill="white"/>
<path d="M8.37838 276.487H0V284.865H8.37838V276.487Z" fill="white"/>
<path d="M25.1352 276.487H16.7568V284.865H25.1352V276.487Z" fill="white"/>
<path d="M33.5135 276.487H25.1352V284.865H33.5135V276.487Z" fill="white"/>
<path d="M41.8918 276.487H33.5135V284.865H41.8918V276.487Z" fill="white"/>
<path d="M58.6486 276.487H50.2702V284.865H58.6486V276.487Z" fill="white"/>
<path d="M75.4054 276.487H67.027V284.865H75.4054V276.487Z" fill="white"/>
<path d="M83.7837 276.487H75.4054V284.865H83.7837V276.487Z" fill="white"/>
<path d="M100.541 276.487L92.1622 276.487L92.1622 284.865H100.541V276.487Z" fill="white"/>
<path d="M117.297 276.487H108.919V284.865H117.297V276.487Z" fill="white"/>
<path d="M125.676 276.487L117.297 276.487V284.865H125.676L125.676 276.487Z" fill="white"/>
<path d="M134.054 276.487H125.676L125.676 284.865H134.054V276.487Z" fill="white"/>
<path d="M142.432 276.487H134.054V284.865H142.432V276.487Z" fill="white"/>
<path d="M150.811 276.487H142.432V284.865H150.811V276.487Z" fill="white"/>
<path d="M159.189 276.487H150.811V284.865H159.189L159.189 276.487Z" fill="white"/>
<path d="M201.081 276.487L192.703 276.487V284.865H201.081L201.081 276.487Z" fill="white"/>
<path d="M226.216 276.487H217.838L217.838 284.865H226.216V276.487Z" fill="white"/>
<path d="M242.973 276.487H234.594L234.595 284.865H242.973V276.487Z" fill="white"/>
<path d="M251.351 276.487H242.973V284.865H251.351V276.487Z" fill="white"/>
<path d="M259.73 276.487H251.351V284.865H259.73V276.487Z" fill="white"/>
<path d="M284.865 276.487H276.486L276.487 284.865H284.865V276.487Z" fill="white"/>
<path d="M301.622 276.487L293.243 276.487V284.865H301.622L301.622 276.487Z" fill="white"/>
<path d="M310 276.487H301.622L301.622 284.865H310V276.487Z" fill="white"/>
<path d="M8.37838 284.865H0V293.243H8.37838V284.865Z" fill="white"/>
<path d="M25.1352 284.865H16.7568V293.243H25.1352V284.865Z" fill="white"/>
<path d="M33.5135 284.865H25.1352V293.243H33.5135V284.865Z" fill="white"/>
<path d="M41.8918 284.865H33.5135V293.243H41.8918V284.865Z" fill="white"/>
<path d="M58.6486 284.865H50.2702V293.243H58.6486V284.865Z" fill="white"/>
<path d="M75.4054 284.865H67.027V293.243H75.4054V284.865Z" fill="white"/>
<path d="M108.919 284.865H100.541L100.54 293.243H108.919L108.919 284.865Z" fill="white"/>
<path d="M117.297 284.865H108.919L108.919 293.243H117.297V284.865Z" fill="white"/>
<path d="M125.676 284.865H117.297V293.243H125.676V284.865Z" fill="white"/>
<path d="M134.054 284.865H125.676V293.243H134.054V284.865Z" fill="white"/>
<path d="M167.568 284.865L159.189 284.865L159.189 293.243H167.568V284.865Z" fill="white"/>
<path d="M184.324 284.865H175.946V293.243H184.324V284.865Z" fill="white"/>
<path d="M192.703 284.865L184.324 284.865V293.243H192.703L192.703 284.865Z" fill="white"/>
<path d="M209.459 284.865L201.081 284.865L201.081 293.243H209.459V284.865Z" fill="white"/>
<path d="M217.838 284.865L209.459 284.865V293.243H217.838L217.838 284.865Z" fill="white"/>
<path d="M226.216 284.865H217.838L217.838 293.243H226.216V284.865Z" fill="white"/>
<path d="M234.595 284.865H226.216V293.243H234.594L234.595 284.865Z" fill="white"/>
<path d="M251.351 284.865H242.973L242.973 293.243H251.351V284.865Z" fill="white"/>
<path d="M293.243 284.865H284.865L284.865 293.243H293.243L293.243 284.865Z" fill="white"/>
<path d="M310 284.865H301.622L301.622 293.243H310V284.865Z" fill="white"/>
<path d="M8.37838 293.243H0V301.622H8.37838V293.243Z" fill="white"/>
<path d="M58.6486 293.243H50.2702V301.622H58.6486V293.243Z" fill="white"/>
<path d="M100.54 293.243L92.1622 293.243V301.622H100.541L100.54 293.243Z" fill="white"/>
<path d="M134.054 293.243H125.676L125.676 301.622H134.054V293.243Z" fill="white"/>
<path d="M150.811 293.243H142.432V301.622H150.811V293.243Z" fill="white"/>
<path d="M159.189 293.243L150.811 293.243V301.622H159.189L159.189 293.243Z" fill="white"/>
<path d="M167.568 293.243H159.189L159.189 301.622H167.568V293.243Z" fill="white"/>
<path d="M192.703 293.243H184.324L184.324 301.622H192.703V293.243Z" fill="white"/>
<path d="M259.73 293.243L251.351 293.243L251.351 301.622H259.73V293.243Z" fill="white"/>
<path d="M268.108 293.243H259.73V301.622H268.108V293.243Z" fill="white"/>
<path d="M276.486 293.243H268.108V301.622H276.486V293.243Z" fill="white"/>
<path d="M301.622 293.243H293.243L293.243 301.622H301.622L301.622 293.243Z" fill="white"/>
<path d="M8.37838 301.622H0V310H8.37838V301.622Z" fill="white"/>
<path d="M16.7567 301.622L8.37838 301.622V310H16.7567V301.622Z" fill="white"/>
<path d="M25.1352 301.622H16.7567V310H25.1352V301.622Z" fill="white"/>
<path d="M33.5135 301.622H25.1352V310H33.5135V301.622Z" fill="white"/>
<path d="M41.8918 301.622H33.5135V310H41.8918V301.622Z" fill="white"/>
<path d="M50.2702 301.622L41.8918 301.622V310H50.2703L50.2702 301.622Z" fill="white"/>
<path d="M58.6486 301.622H50.2702L50.2703 310H58.6486V301.622Z" fill="white"/>
<path d="M83.7837 301.622H75.4054V310H83.7837V301.622Z" fill="white"/>
<path d="M92.1622 301.622L83.7837 301.622V310H92.1622L92.1622 301.622Z" fill="white"/>
<path d="M108.919 301.622L100.541 301.622L100.54 310H108.919V301.622Z" fill="white"/>
<path d="M117.297 301.622H108.919V310H117.297V301.622Z" fill="white"/>
<path d="M150.811 301.622H142.432V310H150.811V301.622Z" fill="white"/>
<path d="M159.189 301.622H150.811V310H159.189V301.622Z" fill="white"/>
<path d="M167.568 301.622H159.189V310H167.568V301.622Z" fill="white"/>
<path d="M184.324 301.622L175.946 301.622V310H184.324L184.324 301.622Z" fill="white"/>
<path d="M226.216 301.622H217.838V310H226.216V301.622Z" fill="white"/>
<path d="M251.351 301.622L242.973 301.622V310H251.351L251.351 301.622Z" fill="white"/>
<path d="M293.243 301.622L284.865 301.622V310H293.243L293.243 301.622Z" fill="white"/>
<path d="M301.622 301.622H293.243L293.243 310H301.622V301.622Z" fill="white"/>
<path d="M310 301.622L301.622 301.622V310H310V301.622Z" fill="white"/>
</svg>
