<svg width="30" height="30" viewBox="0 0 30 30" fill="none" xmlns="http://www.w3.org/2000/svg">
<g clip-path="url(#clip0_3078_11096)">
<path d="M14.2917 3.81034C14.2536 3.84845 14.142 3.97231 14.0413 4.08528C13.8466 4.30441 13.5363 4.61746 13.3063 4.82707C13.0953 5.02034 13.0858 5.02578 13.0068 5.03667C12.6094 5.08976 11.5273 5.44228 11.1639 5.63691C11.0864 5.67774 11.0088 5.71177 10.9897 5.71177C10.9421 5.71177 10.7243 5.66549 10.4466 5.59472C10.1962 5.53211 10.1622 5.52666 10.1622 5.54708C10.1622 5.55524 10.2193 5.63555 10.2888 5.72674C10.3568 5.81793 10.4221 5.90504 10.433 5.92001C10.4507 5.94315 10.4507 5.94724 10.4303 5.95812C10.4181 5.96493 10.4004 5.97854 10.3908 5.98943C10.3813 5.99896 10.3364 6.02754 10.2915 6.05204C9.37684 6.55428 8.56155 7.23618 7.92321 8.03241C7.57341 8.46659 7.24947 8.9593 7.03851 9.37443C6.86021 9.72423 6.66557 10.1979 6.53627 10.5926C6.46822 10.8022 6.36069 11.2051 6.3675 11.2241C6.37022 11.2296 6.41786 11.1819 6.47366 11.1166C6.52946 11.0513 6.70504 10.8512 6.86157 10.6715C7.01945 10.4919 7.19503 10.2891 7.25356 10.2224C7.38967 10.0645 7.80071 9.6589 7.98446 9.50101C8.45539 9.09541 8.85827 8.87764 9.28837 8.79189C9.45034 8.76059 9.81919 8.76059 10.0097 8.79189C10.3568 8.85042 10.727 8.96066 11.3055 9.17571C12.4733 9.61262 13.0123 9.74465 13.9051 9.80998C14.2046 9.83312 15.6868 9.83312 15.974 9.80998C16.8873 9.7392 17.4018 9.61398 18.5736 9.17571C19.1576 8.95794 19.5264 8.84906 19.8735 8.79325C20.0736 8.76059 20.4002 8.76059 20.5744 8.79325C20.9161 8.8545 21.2876 9.03008 21.6293 9.28868C21.9627 9.54321 22.4214 9.98556 22.759 10.3803C22.8706 10.5109 23.0462 10.711 23.1469 10.8226C23.2476 10.9356 23.3701 11.0744 23.4177 11.1329C23.4667 11.1901 23.5076 11.235 23.5103 11.2323C23.513 11.2296 23.5021 11.1738 23.4858 11.1071C23.3401 10.4878 23.0094 9.6589 22.6773 9.08044C22.563 8.88036 22.288 8.47068 22.1125 8.23657C21.6892 7.67308 21.1134 7.09735 20.554 6.67813C19.2106 5.6723 17.3895 4.9904 15.6609 4.84612C15.4786 4.82979 15.2336 4.82162 14.9532 4.82162L14.5244 4.82026V4.56166C14.5244 4.36838 14.5176 4.27175 14.4999 4.18055C14.4741 4.04717 14.4047 3.81715 14.3774 3.76951C14.3597 3.7382 14.3597 3.73957 14.2917 3.81034Z" fill="#3B3B3E"/>
<path d="M15.3693 4.07299C15.1801 4.23223 14.9909 4.36562 14.8494 4.43912L14.75 4.49084V4.56434V4.63647H15.0481H15.3462L15.3815 4.59564C15.4156 4.55345 15.4224 4.53031 15.4373 4.3874C15.4469 4.30165 15.4319 4.0376 15.4183 4.0376C15.4142 4.03896 15.3924 4.05393 15.3693 4.07299Z" fill="#3B3B3E"/>
<path d="M9.43964 8.992C9.04356 9.03147 8.66654 9.20841 8.23508 9.55549C8.04861 9.7052 8.00234 9.7474 7.69065 10.0604C7.44157 10.3095 7.27008 10.4987 6.98969 10.8363C6.90258 10.9424 6.69706 11.1765 6.67665 11.1969C6.64806 11.2228 6.41124 11.5046 6.34863 11.5849C6.26288 11.6951 6.26696 11.6815 6.21524 12.0953C6.1608 12.5226 6.14719 12.9527 6.13902 14.4635C6.13494 15.253 6.12677 15.9757 6.11996 16.0696C6.11452 16.1635 6.11044 16.2411 6.1118 16.2438C6.11452 16.2465 6.18938 16.1867 6.27921 16.1118C6.64262 15.8069 6.84814 15.532 6.94069 15.2257C7.00603 15.0052 7.02372 14.8419 7.05775 14.1083C7.09041 13.4087 7.21291 12.9078 7.48104 12.3797C7.78048 11.789 8.24053 11.3113 8.8462 10.9588C9.43011 10.6212 10.1719 10.447 10.862 10.4878C12.3224 10.5736 13.5474 11.4147 13.9434 12.6057C14.2075 13.3992 14.1068 14.3097 13.6522 15.2108C13.4507 15.6123 13.1527 16.0165 12.8233 16.3418C12.743 16.4208 12.7334 16.4344 12.7334 16.4847C12.7321 16.5746 12.6967 16.7883 12.6586 16.9325C12.3932 17.9397 11.5711 18.7115 10.5421 18.9197C9.63155 19.1035 8.69513 18.8244 8.0595 18.1806L7.95198 18.0718L7.7764 18.1602C7.44021 18.3317 7.10539 18.5454 6.72428 18.8312C6.52557 18.9796 6.17713 19.2668 6.11996 19.328L6.08594 19.3634L6.11724 19.5308C6.23293 20.1338 6.44662 20.7218 6.74878 21.2621C7.13533 21.9549 7.73284 22.6273 8.42563 23.1499C9.25045 23.772 10.2998 24.2402 11.2635 24.4185C11.5003 24.462 11.8542 24.511 11.8923 24.5056C11.9141 24.5029 11.8651 24.4593 11.6841 24.3218C11.3533 24.0687 11.1913 23.9339 11.1709 23.8904C11.1464 23.84 11.1696 23.7815 11.2254 23.7583C11.2744 23.7379 11.3234 23.7583 11.4159 23.8359C11.8011 24.1653 12.3033 24.5274 12.7212 24.7805C12.9648 24.9289 13.4575 25.1711 13.6889 25.2555C14.1326 25.4202 14.4511 25.4869 14.8377 25.4978C15.1289 25.506 15.31 25.4924 15.5577 25.4406C16.1606 25.3154 16.7799 25.035 17.485 24.5682C17.7694 24.3804 18.1124 24.1258 18.3738 23.9081C18.4704 23.8278 18.5643 23.7583 18.5834 23.7529C18.6623 23.7338 18.7385 23.8114 18.7099 23.8836C18.7031 23.9013 18.6705 23.938 18.6392 23.9652C18.6065 23.9924 18.533 24.0537 18.4772 24.1C18.4214 24.1462 18.2812 24.2551 18.1669 24.3422C18.0525 24.428 17.9627 24.5015 17.9654 24.5056C17.9763 24.5151 18.2295 24.4824 18.4922 24.4389C19.4259 24.2824 20.4031 23.8795 21.2239 23.3133C21.3355 23.2357 21.4239 23.1704 21.673 22.9784C21.6921 22.9635 21.7261 22.9335 21.7492 22.9118C21.7724 22.8913 21.8295 22.8423 21.8758 22.8042C22.0813 22.6368 22.476 22.2094 22.7033 21.9086C23.2301 21.2104 23.6017 20.3761 23.7582 19.5295C23.7949 19.3308 23.8194 19.3729 23.5336 19.1348C23.045 18.7264 22.5455 18.3875 22.0963 18.1589L21.9248 18.0718L21.8377 18.1602C21.5287 18.4746 21.1721 18.6979 20.7502 18.838C20.2942 18.9891 19.8138 19.0163 19.3347 18.9197C18.2948 18.7101 17.4727 17.9316 17.21 16.9067C17.1787 16.7855 17.1447 16.5678 17.1433 16.4847C17.1433 16.4344 17.1338 16.4208 17.0535 16.3418C16.916 16.2057 16.7092 15.9689 16.6003 15.8205C16.0381 15.0611 15.7305 14.0974 15.7945 13.2998C15.8381 12.7567 16.0041 12.2994 16.3185 11.8584C16.4329 11.6965 16.7486 11.3725 16.9079 11.2541C17.4142 10.873 17.9858 10.6294 18.6065 10.53C19.3646 10.4075 20.1527 10.5232 20.8251 10.8553C21.462 11.1697 21.9915 11.6611 22.3195 12.2409C22.6326 12.7921 22.7836 13.372 22.819 14.1573C22.8503 14.8392 22.8721 15.0311 22.9375 15.2325C23.0178 15.4816 23.1416 15.6722 23.3689 15.9008C23.5105 16.0424 23.7568 16.2547 23.765 16.2438C23.7663 16.2411 23.7623 16.169 23.7568 16.0832C23.75 15.9975 23.7418 15.4857 23.7378 14.9467C23.7255 13.2331 23.7187 12.788 23.7037 12.5648C23.6915 12.3716 23.6384 11.9088 23.6098 11.74C23.5976 11.6652 23.5595 11.6134 23.2614 11.2718C23.0559 11.0363 22.8313 10.775 22.6244 10.5314C22.3154 10.1666 21.8363 9.70248 21.5369 9.47791C21.0646 9.12266 20.7257 8.99472 20.2575 8.99064C20.0234 8.98792 19.8696 9.00833 19.5892 9.07639C19.4109 9.11994 18.9536 9.27102 18.6269 9.39352C17.5707 9.79095 16.9909 9.94339 16.2382 10.021C15.9442 10.0509 14.3273 10.0645 13.938 10.0414C13.2752 9.9992 12.7198 9.89439 12.0937 9.69296C11.8079 9.6004 11.68 9.55549 11.2499 9.39352C10.3624 9.06005 9.86429 8.94981 9.43964 8.992ZM15.412 17.2333C16.147 17.3286 16.6656 17.4947 17.0685 17.7642C17.3325 17.9411 17.4918 18.1099 17.6047 18.3372C17.9273 18.9837 17.5503 19.7554 16.6084 20.3788C16.1824 20.6605 15.7101 20.8865 15.1262 21.0852L14.9398 21.1478L14.8268 21.111C12.9077 20.4849 11.8338 19.3566 12.2435 18.3957C12.415 17.9915 12.8614 17.6471 13.4807 17.4443C13.7189 17.3654 14.0428 17.2919 14.3123 17.2551C14.4212 17.2401 14.5491 17.2224 14.5981 17.2156C14.7819 17.1898 15.1289 17.1979 15.412 17.2333ZM11.895 20.1406C11.9427 20.1624 11.9549 20.2059 11.9631 20.3774C11.9849 20.8524 12.2571 21.2363 12.743 21.4785C13.0138 21.6133 13.233 21.6636 13.5868 21.6732C14.0265 21.6854 14.3422 21.6283 14.7206 21.4649C14.8213 21.4214 14.9098 21.3914 14.9384 21.3914C14.9683 21.3914 15.0473 21.4186 15.1371 21.4581C15.3699 21.5616 15.6203 21.631 15.8952 21.665C16.0899 21.6881 16.4995 21.6745 16.6697 21.6378C17.0168 21.5629 17.3421 21.3969 17.5503 21.1873C17.783 20.9545 17.9001 20.6864 17.9151 20.3516C17.9219 20.2195 17.9273 20.1855 17.9477 20.1651C18.0049 20.1079 18.0961 20.1215 18.1328 20.1937C18.156 20.24 18.1546 20.4237 18.1301 20.568C18.0498 21.0294 17.7327 21.4255 17.2563 21.6623C17.0862 21.7467 16.8738 21.8174 16.6765 21.8569C16.5295 21.8855 16.5186 21.8896 16.4955 21.9291C16.4342 22.0352 16.2532 22.2557 16.1225 22.385C15.8353 22.6681 15.5659 22.8069 15.3018 22.8069C15.1929 22.8069 15.0595 22.7729 14.9833 22.7253L14.9384 22.6981L14.8948 22.7253C14.7696 22.8029 14.5546 22.8287 14.3885 22.7852C14.2837 22.7579 14.1109 22.6776 14.0074 22.6055C13.8196 22.4762 13.4916 22.125 13.3827 21.9359C13.3555 21.8882 13.3514 21.8869 13.2044 21.8583C12.317 21.6868 11.7262 21.077 11.7262 20.3339C11.7262 20.21 11.7276 20.2032 11.7657 20.1651C11.8093 20.1229 11.8406 20.1161 11.895 20.1406ZM12.9716 23.0424C13.086 23.12 13.4439 23.2833 13.6617 23.3555C14.1286 23.5133 14.5546 23.5773 15.0391 23.5651C15.6475 23.5487 16.2028 23.4072 16.7473 23.1254C16.8589 23.0683 16.961 23.0247 16.9827 23.0247C17.0426 23.0247 17.0943 23.0832 17.0835 23.1363C17.0712 23.1949 17.0603 23.2057 16.9201 23.2929C16.6724 23.4467 16.358 23.5787 16.0368 23.6644C15.4189 23.8291 14.6267 23.8414 13.972 23.6971C13.6181 23.6195 13.1799 23.4412 12.9199 23.2711C12.7838 23.1812 12.7566 23.1227 12.8219 23.0587C12.8587 23.0206 12.9281 23.0138 12.9716 23.0424Z" fill="#3B3B3E"/>
<path d="M14.6574 17.4321C13.7291 17.4988 12.9383 17.8091 12.594 18.2419C12.4973 18.3631 12.4429 18.4679 12.4102 18.5958C12.3544 18.8122 12.3844 19.0463 12.4946 19.2682L12.5532 19.3839L12.7777 19.4274C13.4637 19.5608 14.2749 19.6411 14.9418 19.6411C15.6101 19.6411 16.4105 19.5622 17.106 19.4274L17.3305 19.3839L17.3741 19.3022C17.5211 19.0273 17.5401 18.7156 17.4258 18.4583C17.1849 17.9125 16.3111 17.5097 15.2005 17.4307C14.98 17.4157 14.8833 17.4157 14.6574 17.4321Z" fill="#3B3B3E"/>
<path d="M14.8054 21.6704C14.5073 21.8079 14.0445 21.9086 13.7206 21.9086C13.6811 21.9086 13.6484 21.9141 13.6484 21.9209C13.6484 21.9386 13.8921 22.2189 13.9697 22.2897C14.069 22.3823 14.2024 22.4735 14.3208 22.5293C14.4038 22.5687 14.4488 22.581 14.5263 22.5864C14.6611 22.5946 14.7087 22.5837 14.8026 22.5211C14.9034 22.453 14.9837 22.4462 15.0476 22.5007C15.1851 22.6164 15.3879 22.6191 15.6084 22.5075C15.6914 22.4653 15.8452 22.3537 15.9269 22.2775C15.9909 22.2176 16.2345 21.9358 16.2345 21.9222C16.2345 21.9168 16.1596 21.9086 16.0684 21.9032C15.9759 21.8977 15.8425 21.8841 15.7717 21.8732C15.5349 21.8365 15.1865 21.7317 15.0204 21.6486C14.9769 21.6269 14.9401 21.6092 14.9387 21.6105C14.936 21.6119 14.8761 21.6391 14.8054 21.6704Z" fill="#3B3B3E"/>
<path d="M10.3051 10.722C9.59053 10.7955 8.9236 11.0745 8.40912 11.5168C7.90552 11.9497 7.57477 12.4846 7.406 13.1365C7.31889 13.4768 7.28486 13.749 7.26309 14.2934C7.24539 14.7426 7.23042 14.925 7.19503 15.0992C7.09431 15.5919 6.81393 15.9798 6.24636 16.4154C6.07078 16.5501 6.08712 16.512 6.06534 16.8455C6.05717 16.9693 6.04084 17.1925 6.02995 17.3423C6.00137 17.737 5.99048 18.4121 6.00953 18.6856C6.02995 18.9932 6.03948 19.0776 6.05309 19.0776C6.05989 19.0776 6.10617 19.0422 6.15653 18.9987C6.63291 18.5931 7.12834 18.2542 7.66188 17.9697C7.80344 17.8935 7.80752 17.8894 7.78982 17.8608C7.61152 17.5886 7.52441 17.4158 7.44547 17.1776C7.39103 17.0115 7.33114 16.7298 7.33114 16.6399C7.33114 16.6046 7.32706 16.6005 7.28759 16.6005C7.13106 16.6005 7.05348 16.5066 7.13106 16.4154C7.15692 16.3854 7.17734 16.3773 7.23995 16.3718L7.31753 16.3664V16.2997C7.31753 16.1921 7.357 15.9227 7.39375 15.7716C7.56933 15.0625 8.01168 14.4323 8.61872 14.0308C9.28837 13.587 10.0669 13.4714 10.8223 13.7027C11.0932 13.7858 11.3899 13.9382 11.6458 14.1274C11.8486 14.2758 12.1357 14.5725 12.2705 14.7753C12.5196 15.1482 12.6693 15.5416 12.721 15.9567C12.7305 16.0343 12.7428 16.0969 12.7469 16.0955C12.751 16.0955 12.804 16.0383 12.8653 15.9703C13.6357 15.0978 14.0018 13.9328 13.8085 12.9732C13.6071 11.9728 12.7959 11.1739 11.6485 10.8431C11.2497 10.7288 10.7121 10.6798 10.3051 10.722Z" fill="#3B3B3E"/>
<path d="M18.9341 10.7165C18.4333 10.7614 17.9433 10.9016 17.539 11.118C16.4229 11.7128 15.884 12.7296 16.0486 13.93C16.133 14.5412 16.4052 15.1836 16.8013 15.709C16.9034 15.8451 17.1171 16.0942 17.1321 16.0955C17.1361 16.0969 17.1443 16.056 17.1498 16.0043C17.1661 15.8451 17.2233 15.5919 17.2804 15.4231C17.5159 14.7399 18.01 14.1846 18.6742 13.8579C19.7304 13.338 20.9376 13.5762 21.7747 14.4717C22.1245 14.8447 22.3586 15.2775 22.4865 15.7784C22.5192 15.9104 22.5614 16.2126 22.5614 16.3215V16.3759H22.6376C22.7043 16.3759 22.7179 16.3813 22.7465 16.414C22.8227 16.5038 22.7492 16.6005 22.605 16.6005H22.5532L22.5369 16.7298C22.4865 17.0959 22.3559 17.4498 22.149 17.7683C22.1041 17.8377 22.0701 17.8962 22.0728 17.8976C22.0755 17.8989 22.149 17.9371 22.2347 17.9806C22.6785 18.2093 23.2678 18.6121 23.7238 18.9987C23.7741 19.0422 23.8204 19.0776 23.8259 19.0776C23.8748 19.0776 23.8912 17.918 23.8503 17.3763C23.8381 17.2157 23.8218 16.9911 23.8136 16.8795C23.8068 16.7665 23.7973 16.6427 23.7918 16.6032L23.785 16.5324L23.6489 16.429C23.1535 16.0533 22.8704 15.7062 22.7383 15.3102C22.6594 15.0733 22.6376 14.8964 22.6159 14.3683C22.5941 13.8116 22.5682 13.5694 22.4988 13.2522C22.3913 12.7609 22.1299 12.226 21.8291 11.8816C21.2371 11.2024 20.4613 10.8077 19.5425 10.7206C19.4064 10.7084 19.0566 10.7056 18.9341 10.7165Z" fill="#3B3B3E"/>
<path d="M9.82907 13.8101C8.88448 13.9149 8.07736 14.5424 7.70715 15.457C7.66359 15.5646 7.58329 15.8531 7.56287 15.9743C7.54382 16.0872 7.5234 16.3731 7.53429 16.3853C7.54246 16.3935 8.23661 16.4329 9.06006 16.471C9.3105 16.4833 9.96654 16.516 10.5164 16.5459C12.1892 16.6357 12.475 16.648 12.4927 16.6303C12.5158 16.6072 12.524 16.1961 12.505 16.0287C12.4437 15.4924 12.2314 15.0229 11.868 14.62C11.495 14.2062 10.9901 13.9286 10.4347 13.8306C10.2918 13.8061 9.96926 13.7952 9.82907 13.8101Z" fill="#3B3B3E"/>
<path d="M19.6579 13.8047C19.3721 13.8319 19.1529 13.885 18.9011 13.9884C18.5963 14.1136 18.3349 14.2892 18.0995 14.5247C17.6898 14.9344 17.4543 15.4039 17.3767 15.9674C17.3536 16.1389 17.3536 16.5881 17.3767 16.6262C17.3863 16.6412 17.4284 16.6425 17.6013 16.6357C17.8531 16.6248 18.8589 16.5731 19.7328 16.5255C20.0771 16.5078 20.6283 16.4792 20.9577 16.4642C21.2871 16.4493 21.7158 16.4275 21.9105 16.4166C22.1051 16.4057 22.2807 16.3962 22.3025 16.3962C22.3392 16.3962 22.3392 16.3962 22.3392 16.2968C22.3392 16.0858 22.2793 15.7742 22.1949 15.536C22.0452 15.1195 21.7689 14.7152 21.4341 14.4267C21.3524 14.3559 21.2299 14.2606 21.1632 14.2157C21.0094 14.1136 20.725 13.9748 20.5562 13.919C20.2731 13.8278 19.9124 13.7815 19.6579 13.8047Z" fill="#3B3B3E"/>
<path d="M7.55623 16.644C7.60659 16.9652 7.63653 17.0782 7.73317 17.3042C7.94549 17.8009 8.34157 18.2174 8.84108 18.4706C9.40185 18.7551 10.013 18.8231 10.6173 18.6693C11.0556 18.5591 11.3877 18.3767 11.7361 18.0555C11.9511 17.8581 12.1145 17.639 12.2519 17.364C12.3186 17.2307 12.4466 16.8795 12.433 16.8672C12.4302 16.8632 12.1853 16.8482 11.8899 16.8332C11.5945 16.8182 11.2992 16.8019 11.2352 16.7965L11.1168 16.7883L11.0937 16.8618C11.0311 17.0524 10.895 17.2524 10.7452 17.3736C10.6432 17.4566 10.458 17.5546 10.3247 17.5968C10.2362 17.624 10.1954 17.6281 10.0116 17.6267C9.81834 17.6267 9.79112 17.624 9.68495 17.5886C9.28888 17.4593 9.0153 17.1653 8.92683 16.7747L8.90642 16.6835L8.82339 16.6767C8.73356 16.6685 8.59745 16.6617 8.0993 16.6413C7.9278 16.6345 7.73317 16.625 7.6692 16.6195L7.55078 16.6114L7.55623 16.644Z" fill="#3B3B3E"/>
<path d="M22.0179 16.6291C21.909 16.6345 21.664 16.6454 21.4734 16.6536C21.2829 16.6618 21.091 16.6726 21.0488 16.6767L20.9712 16.6849L20.9549 16.7611C20.8759 17.149 20.5874 17.4621 20.194 17.5873C20.028 17.6404 19.7721 17.6499 19.6088 17.6104C19.4386 17.5682 19.2154 17.4512 19.097 17.3437C18.95 17.2089 18.8221 17.0102 18.7771 16.8428L18.7635 16.7883L18.6451 16.7965C18.5798 16.8019 18.2844 16.8183 17.9891 16.8333C17.6937 16.8482 17.4501 16.8632 17.446 16.8659C17.4365 16.8754 17.5263 17.1422 17.5821 17.2729C17.7278 17.6091 17.9796 17.9357 18.2831 18.1807C18.9446 18.7197 19.8565 18.8898 20.6622 18.6285C21.3523 18.4039 21.9117 17.8908 22.1662 17.2497C22.2479 17.0456 22.3173 16.7706 22.3173 16.6536C22.3173 16.6087 22.3486 16.6114 22.0179 16.6291Z" fill="#3B3B3E"/>
</g>
<defs>
<clipPath id="clip0_3078_11096">
<rect width="30" height="30" rx="15" fill="white"/>
</clipPath>
</defs>
</svg>
