<svg width="18" height="18" viewBox="0 0 18 18" fill="none" xmlns="http://www.w3.org/2000/svg">
<path d="M9 2V10" stroke="white" stroke-width="2" stroke-linecap="round" stroke-linejoin="round"/>
<path d="M11 9L9 11L7 9" stroke="white" stroke-width="2" stroke-linecap="round" stroke-linejoin="round"/>
<mask id="path-3-inside-1_4015_10096" fill="white">
<path d="M13.9161 6.03257C14.2095 5.79579 14.6425 5.84009 14.8495 6.15515C15.4405 7.05424 15.818 8.08024 15.9487 9.15435C16.107 10.455 15.8971 11.7741 15.3428 12.9613C14.7884 14.1486 13.912 15.1564 12.8132 15.8702C11.7144 16.584 10.4373 16.975 9.12722 16.9988C7.81714 17.0227 6.52668 16.6783 5.40265 16.0049C4.27862 15.3316 3.36615 14.3562 2.76906 13.1899C2.17196 12.0235 1.91421 10.713 2.02513 9.40744C2.11672 8.3293 2.45669 7.29025 3.01459 6.37028C3.21009 6.0479 3.64114 5.98789 3.94295 6.21386V6.21386C4.24477 6.43982 4.30218 6.866 4.11435 7.19291C3.70542 7.90464 3.45552 8.69966 3.38557 9.52302C3.29629 10.574 3.50377 11.6289 3.9844 12.5677C4.46504 13.5065 5.19953 14.2916 6.10432 14.8337C7.0091 15.3757 8.04786 15.6529 9.10241 15.6337C10.157 15.6146 11.1849 15.2998 12.0694 14.7252C12.9539 14.1507 13.6594 13.3394 14.1056 12.3837C14.5518 11.428 14.7208 10.3663 14.5934 9.31929C14.4936 8.49902 14.2149 7.7136 13.7804 7.01721C13.5808 6.69734 13.6227 6.26936 13.9161 6.03257V6.03257Z"/>
</mask>
<path d="M13.9161 6.03257C14.2095 5.79579 14.6425 5.84009 14.8495 6.15515C15.4405 7.05424 15.818 8.08024 15.9487 9.15435C16.107 10.455 15.8971 11.7741 15.3428 12.9613C14.7884 14.1486 13.912 15.1564 12.8132 15.8702C11.7144 16.584 10.4373 16.975 9.12722 16.9988C7.81714 17.0227 6.52668 16.6783 5.40265 16.0049C4.27862 15.3316 3.36615 14.3562 2.76906 13.1899C2.17196 12.0235 1.91421 10.713 2.02513 9.40744C2.11672 8.3293 2.45669 7.29025 3.01459 6.37028C3.21009 6.0479 3.64114 5.98789 3.94295 6.21386V6.21386C4.24477 6.43982 4.30218 6.866 4.11435 7.19291C3.70542 7.90464 3.45552 8.69966 3.38557 9.52302C3.29629 10.574 3.50377 11.6289 3.9844 12.5677C4.46504 13.5065 5.19953 14.2916 6.10432 14.8337C7.0091 15.3757 8.04786 15.6529 9.10241 15.6337C10.157 15.6146 11.1849 15.2998 12.0694 14.7252C12.9539 14.1507 13.6594 13.3394 14.1056 12.3837C14.5518 11.428 14.7208 10.3663 14.5934 9.31929C14.4936 8.49902 14.2149 7.7136 13.7804 7.01721C13.5808 6.69734 13.6227 6.26936 13.9161 6.03257V6.03257Z" stroke="white" stroke-opacity="0.5" stroke-width="2" mask="url(#path-3-inside-1_4015_10096)"/>
</svg>
