<svg width="100" height="100" viewBox="0 0 100 100" fill="none" xmlns="http://www.w3.org/2000/svg">
<path d="M28 58C43.464 58 56 45.464 56 30C56 14.536 43.464 2 28 2C12.536 2 0 14.536 0 30C0 45.464 12.536 58 28 58Z" fill="#616161"/>
<path d="M29.7344 14.5V25.6463L39.1553 29.856L29.7344 14.5Z" fill="#B0BCFF"/>
<path d="M29.7308 14.5L20.3086 29.856L29.7308 25.6463V14.5Z" fill="#6D82FF"/>
<path d="M29.7344 37.0793V44.653L39.1616 31.6105L29.7344 37.0793Z" fill="#B0BCFF"/>
<path d="M29.7308 44.6529V37.078L20.3086 31.6104L29.7308 44.6529Z" fill="#6D82FF"/>
<path d="M29.7344 35.3263L39.1553 29.8562L29.7344 25.649V35.3263Z" fill="#DDE2FF"/>
<path d="M20.3086 29.8561L29.7308 35.3262V25.6489L20.3086 29.8561Z" fill="#B0BCFF"/>
<path d="M60 22.5C80.7107 22.5 97.5 39.2893 97.5 60C97.5 80.7107 80.7107 97.5 60 97.5C39.2893 97.5 22.5 80.7107 22.5 60C22.5 39.2893 39.2893 22.5 60 22.5Z" fill="#616161" stroke="#1A1A1C" stroke-width="5"/>
<path d="M61.0117 40V55.3742L74.0061 61.1806L61.0117 40Z" fill="#B0BCFF"/>
<path d="M61.0039 40L48.0078 61.1806L61.0039 55.3742V40Z" fill="#6D82FF"/>
<path d="M61.0117 71.1438V81.5903L74.0148 63.6006L61.0117 71.1438Z" fill="#B0BCFF"/>
<path d="M61.0039 81.5902V71.142L48.0078 63.6005L61.0039 81.5902Z" fill="#6D82FF"/>
<path d="M61.0117 68.7259L74.0061 61.1809L61.0117 55.3779V68.7259Z" fill="#DDE2FF"/>
<path d="M48.0078 61.1808L61.0039 68.7258V55.3778L48.0078 61.1808Z" fill="#B0BCFF"/>
</svg>
