<svg width="28" height="28" viewBox="0 0 28 28" fill="none" xmlns="http://www.w3.org/2000/svg">
<rect x="27.5" y="27.5" width="27" height="27" rx="8.5" transform="rotate(180 27.5 27.5)" stroke="white"/>
<path d="M20 6.97826C20 7.51853 19.5758 7.95652 19.0526 7.95652L8.94737 7.95652C8.42417 7.95652 8 7.51854 8 6.97826C8 6.43799 8.42417 6 8.94737 6L19.0526 6C19.5758 6 20 6.43799 20 6.97826Z" fill="white"/>
<path d="M14 21C13.4768 21 13.0526 20.562 13.0526 20.0217L13.0526 13.2531L10.8804 15.496C10.5104 15.8781 9.91065 15.8781 9.54067 15.496C9.1707 15.114 9.1707 14.4947 9.54067 14.1127L13.3301 10.1996C13.5077 10.0161 13.7488 9.91304 14 9.91304C14.2512 9.91304 14.4923 10.0161 14.6699 10.1996L18.4594 14.1127C18.8293 14.4947 18.8293 15.114 18.4594 15.496C18.0894 15.8781 17.4896 15.8781 17.1196 15.496L14.9474 13.2531L14.9474 20.0217C14.9474 20.562 14.5232 21 14 21Z" fill="white"/>
</svg>
