<svg width="28" height="28" viewBox="0 0 28 28" fill="none" xmlns="http://www.w3.org/2000/svg">
<rect x="0.5" y="0.5" width="27" height="27" rx="8.5" stroke="white"/>
<path d="M8 21.0217C8 20.4815 8.42416 20.0435 8.94737 20.0435H19.0526C19.5758 20.0435 20 20.4815 20 21.0217C20 21.562 19.5758 22 19.0526 22H8.94737C8.42416 22 8 21.562 8 21.0217Z" fill="white"/>
<path d="M14 7C14.5232 7 14.9474 7.438 14.9474 7.97826V14.7469L17.1196 12.504C17.4896 12.1219 18.0893 12.1219 18.4593 12.504C18.8293 12.886 18.8293 13.5053 18.4593 13.8873L14.6699 17.8004C14.4923 17.9839 14.2512 18.087 14 18.087C13.7488 18.087 13.5077 17.9839 13.3301 17.8004L9.54064 13.8873C9.17067 13.5053 9.17067 12.886 9.54064 12.504C9.9106 12.1219 10.5104 12.1219 10.8804 12.504L13.0526 14.7469L13.0526 7.97826C13.0526 7.438 13.4768 7 14 7Z" fill="white"/>
</svg>
